G04 #@! TF.FileFunction,Soldermask,Bot*
%FSLAX46Y46*%
G04 Gerber Fmt 4.6, Leading zero omitted, Abs format (unit mm)*
G04 Created by KiCad (PCBNEW 4.0.1-stable) date Tuesday, May 24, 2016 'PMt' 11:55:59 PM*
%MOMM*%
G01*
G04 APERTURE LIST*
%ADD10C,0.100000*%
%ADD11C,2.000000*%
%ADD12R,2.000000X2.400000*%
%ADD13R,1.600000X1.150000*%
%ADD14R,1.200100X1.200100*%
%ADD15R,1.197560X1.197560*%
%ADD16R,0.999440X1.598880*%
%ADD17R,2.127200X2.432000*%
%ADD18O,2.127200X2.432000*%
%ADD19R,2.000000X1.800000*%
%ADD20R,0.800000X1.750000*%
%ADD21R,2.300000X2.300000*%
%ADD22O,1.300000X2.000000*%
%ADD23R,1.060000X0.630000*%
%ADD24R,1.060000X0.750000*%
%ADD25C,1.924000*%
%ADD26R,1.600000X1.300000*%
%ADD27R,1.300000X1.600000*%
%ADD28R,1.800000X1.450000*%
G04 APERTURE END LIST*
D10*
D11*
X164590000Y-120760000D03*
X134800000Y-94970000D03*
X133430000Y-120660000D03*
D12*
X137920000Y-124650000D03*
X137920000Y-120650000D03*
D13*
X135890000Y-106080000D03*
X133990000Y-106080000D03*
D14*
X153540000Y-96790000D03*
X153540000Y-94890000D03*
X155538980Y-95840000D03*
D15*
X157429300Y-91050000D03*
X155930700Y-91050000D03*
D16*
X138901040Y-115960000D03*
X137498960Y-115960000D03*
D17*
X154330000Y-124440000D03*
D18*
X151790000Y-124440000D03*
X149250000Y-124440000D03*
X146710000Y-124440000D03*
X144170000Y-124440000D03*
X141630000Y-124440000D03*
D19*
X139100000Y-93900000D03*
X145500000Y-93900000D03*
D20*
X141000000Y-94125000D03*
X141650000Y-94125000D03*
X142300000Y-94125000D03*
X142950000Y-94125000D03*
X143600000Y-94125000D03*
D21*
X141100000Y-91450000D03*
X143500000Y-91450000D03*
D22*
X139000000Y-91450000D03*
X145600000Y-91450000D03*
D23*
X161005000Y-106200000D03*
X158295000Y-106200000D03*
X161005000Y-109800000D03*
X158295000Y-109800000D03*
D24*
X161005000Y-105725000D03*
X158295000Y-105725000D03*
X161005000Y-110275000D03*
X158295000Y-110275000D03*
D23*
X158295000Y-109400000D03*
X161005000Y-109400000D03*
X158295000Y-109000000D03*
X161005000Y-109000000D03*
X158295000Y-108600000D03*
X161005000Y-108600000D03*
X158295000Y-108200000D03*
X161005000Y-108200000D03*
X158295000Y-107800000D03*
X161005000Y-107800000D03*
X158295000Y-107400000D03*
X161005000Y-107400000D03*
X158295000Y-107000000D03*
X161005000Y-107000000D03*
X158295000Y-106600000D03*
X161005000Y-106600000D03*
D25*
X131260000Y-97700000D03*
X137150000Y-95260000D03*
D26*
X135940000Y-110690000D03*
X133740000Y-110690000D03*
D27*
X132280000Y-101660000D03*
X132280000Y-103860000D03*
X132290000Y-108190000D03*
X132290000Y-105990000D03*
D26*
X155660000Y-92830000D03*
X157860000Y-92830000D03*
D28*
X151790000Y-92260000D03*
X148190000Y-92260000D03*
X151790000Y-90810000D03*
X148190000Y-90810000D03*
M02*
