G04 #@! TF.FileFunction,Paste,Bot*
%FSLAX46Y46*%
G04 Gerber Fmt 4.6, Leading zero omitted, Abs format (unit mm)*
G04 Created by KiCad (PCBNEW 4.0.1-stable) date Tuesday, May 24, 2016 'PMt' 11:55:58 PM*
%MOMM*%
G01*
G04 APERTURE LIST*
%ADD10C,0.100000*%
%ADD11R,1.600000X2.000000*%
%ADD12R,1.200000X0.750000*%
%ADD13R,0.800100X0.800100*%
%ADD14R,0.797560X0.797560*%
%ADD15R,0.599440X1.198880*%
%ADD16R,1.600000X1.400000*%
%ADD17R,0.400000X1.350000*%
%ADD18R,1.900000X1.900000*%
%ADD19O,0.900000X1.600000*%
%ADD20R,0.660000X0.230000*%
%ADD21R,0.660000X0.350000*%
%ADD22C,1.524000*%
%ADD23R,1.200000X0.900000*%
%ADD24R,0.900000X1.200000*%
%ADD25R,1.400000X1.050000*%
G04 APERTURE END LIST*
D10*
D11*
X137920000Y-124650000D03*
X137920000Y-120650000D03*
D12*
X135890000Y-106080000D03*
X133990000Y-106080000D03*
D13*
X153540000Y-96790000D03*
X153540000Y-94890000D03*
X155538980Y-95840000D03*
D14*
X157429300Y-91050000D03*
X155930700Y-91050000D03*
D15*
X138901040Y-115960000D03*
X137498960Y-115960000D03*
D16*
X139100000Y-93900000D03*
X145500000Y-93900000D03*
D17*
X141000000Y-94125000D03*
X141650000Y-94125000D03*
X142300000Y-94125000D03*
X142950000Y-94125000D03*
X143600000Y-94125000D03*
D18*
X141100000Y-91450000D03*
X143500000Y-91450000D03*
D19*
X139000000Y-91450000D03*
X145600000Y-91450000D03*
D20*
X161005000Y-106200000D03*
X158295000Y-106200000D03*
X161005000Y-109800000D03*
X158295000Y-109800000D03*
D21*
X161005000Y-105725000D03*
X158295000Y-105725000D03*
X161005000Y-110275000D03*
X158295000Y-110275000D03*
D20*
X158295000Y-109400000D03*
X161005000Y-109400000D03*
X158295000Y-109000000D03*
X161005000Y-109000000D03*
X158295000Y-108600000D03*
X161005000Y-108600000D03*
X158295000Y-108200000D03*
X161005000Y-108200000D03*
X158295000Y-107800000D03*
X161005000Y-107800000D03*
X158295000Y-107400000D03*
X161005000Y-107400000D03*
X158295000Y-107000000D03*
X161005000Y-107000000D03*
X158295000Y-106600000D03*
X161005000Y-106600000D03*
D22*
X131260000Y-97700000D03*
X137150000Y-95260000D03*
D23*
X135940000Y-110690000D03*
X133740000Y-110690000D03*
D24*
X132280000Y-101660000D03*
X132280000Y-103860000D03*
X132290000Y-108190000D03*
X132290000Y-105990000D03*
D23*
X155660000Y-92830000D03*
X157860000Y-92830000D03*
D25*
X151790000Y-92260000D03*
X148190000Y-92260000D03*
X151790000Y-90810000D03*
X148190000Y-90810000D03*
M02*
