G04 #@! TF.FileFunction,Legend,Top*
%FSLAX46Y46*%
G04 Gerber Fmt 4.6, Leading zero omitted, Abs format (unit mm)*
G04 Created by KiCad (PCBNEW 4.0.1-stable) date Tuesday, May 24, 2016 'PMt' 11:55:59 PM*
%MOMM*%
G01*
G04 APERTURE LIST*
%ADD10C,0.100000*%
%ADD11C,0.200000*%
%ADD12C,0.150000*%
G04 APERTURE END LIST*
D10*
D11*
X138106063Y-113550000D02*
G75*
G03X138106063Y-113550000I-506063J0D01*
G01*
D12*
X138151250Y-103611250D02*
X138726250Y-103611250D01*
X147551250Y-113011250D02*
X146976250Y-113011250D01*
X147551250Y-103611250D02*
X146976250Y-103611250D01*
X138151250Y-113011250D02*
X138151250Y-112436250D01*
X147551250Y-113011250D02*
X147551250Y-112436250D01*
X147551250Y-103611250D02*
X147551250Y-104186250D01*
X138151250Y-103611250D02*
X138151250Y-104186250D01*
X141550000Y-116000000D02*
X141550000Y-115300000D01*
X142750000Y-115300000D02*
X142750000Y-116000000D01*
X150800000Y-109500000D02*
X150800000Y-110200000D01*
X149600000Y-110200000D02*
X149600000Y-109500000D01*
X131155000Y-114640000D02*
X131155000Y-116640000D01*
X133205000Y-116640000D02*
X133205000Y-114640000D01*
X133410000Y-107420000D02*
X133410000Y-106720000D01*
X134610000Y-106720000D02*
X134610000Y-107420000D01*
X135070000Y-107410000D02*
X135070000Y-106710000D01*
X136270000Y-106710000D02*
X136270000Y-107410000D01*
X138320000Y-102840000D02*
X137620000Y-102840000D01*
X137620000Y-101640000D02*
X138320000Y-101640000D01*
X148070000Y-103050000D02*
X147370000Y-103050000D01*
X147370000Y-101850000D02*
X148070000Y-101850000D01*
X160530000Y-96315000D02*
X158530000Y-96315000D01*
X158530000Y-98365000D02*
X160530000Y-98365000D01*
X157170000Y-92660000D02*
X156470000Y-92660000D01*
X156470000Y-91460000D02*
X157170000Y-91460000D01*
X139030000Y-93830000D02*
X138330000Y-93830000D01*
X138330000Y-92630000D02*
X139030000Y-92630000D01*
X149550000Y-92949300D02*
X149550000Y-91049300D01*
X148450000Y-92949300D02*
X148450000Y-91049300D01*
X149000000Y-92049300D02*
X149000000Y-91599300D01*
X148750000Y-92099300D02*
X149250000Y-92099300D01*
X149000000Y-92099300D02*
X148750000Y-91849300D01*
X148750000Y-91849300D02*
X149250000Y-91849300D01*
X149250000Y-91849300D02*
X149000000Y-92099300D01*
X151700000Y-92949300D02*
X151700000Y-91049300D01*
X150600000Y-92949300D02*
X150600000Y-91049300D01*
X151150000Y-92049300D02*
X151150000Y-91599300D01*
X150900000Y-92099300D02*
X151400000Y-92099300D01*
X151150000Y-92099300D02*
X150900000Y-91849300D01*
X150900000Y-91849300D02*
X151400000Y-91849300D01*
X151400000Y-91849300D02*
X151150000Y-92099300D01*
X153850000Y-92949300D02*
X153850000Y-91049300D01*
X152750000Y-92949300D02*
X152750000Y-91049300D01*
X153300000Y-92049300D02*
X153300000Y-91599300D01*
X153050000Y-92099300D02*
X153550000Y-92099300D01*
X153300000Y-92099300D02*
X153050000Y-91849300D01*
X153050000Y-91849300D02*
X153550000Y-91849300D01*
X153550000Y-91849300D02*
X153300000Y-92099300D01*
X155880000Y-123140000D02*
X154330000Y-123140000D01*
X155880000Y-124440000D02*
X155880000Y-123140000D01*
X154457000Y-128631000D02*
X154457000Y-134473000D01*
X154457000Y-134473000D02*
X154203000Y-134473000D01*
X154203000Y-134473000D02*
X154203000Y-128631000D01*
X154203000Y-128631000D02*
X154330000Y-128631000D01*
X154330000Y-128631000D02*
X154330000Y-134473000D01*
X154584000Y-125964000D02*
X154584000Y-125583000D01*
X154076000Y-125964000D02*
X154076000Y-125583000D01*
X152044000Y-125964000D02*
X152044000Y-125583000D01*
X151536000Y-125964000D02*
X151536000Y-125583000D01*
X149504000Y-125964000D02*
X149504000Y-125583000D01*
X148996000Y-125964000D02*
X148996000Y-125583000D01*
X141376000Y-125964000D02*
X141376000Y-125583000D01*
X141884000Y-125964000D02*
X141884000Y-125583000D01*
X143916000Y-125964000D02*
X143916000Y-125583000D01*
X144424000Y-125964000D02*
X144424000Y-125583000D01*
X146456000Y-125964000D02*
X146456000Y-125583000D01*
X146964000Y-125964000D02*
X146964000Y-125583000D01*
X155600000Y-125964000D02*
X155600000Y-128504000D01*
X153060000Y-125964000D02*
X153060000Y-128504000D01*
X153060000Y-125964000D02*
X150520000Y-125964000D01*
X150520000Y-125964000D02*
X150520000Y-128504000D01*
X152044000Y-128504000D02*
X152044000Y-134600000D01*
X152044000Y-134600000D02*
X151536000Y-134600000D01*
X151536000Y-134600000D02*
X151536000Y-128504000D01*
X150520000Y-128504000D02*
X153060000Y-128504000D01*
X153060000Y-128504000D02*
X155600000Y-128504000D01*
X154076000Y-134600000D02*
X154076000Y-128504000D01*
X154584000Y-134600000D02*
X154076000Y-134600000D01*
X154584000Y-128504000D02*
X154584000Y-134600000D01*
X153060000Y-125964000D02*
X153060000Y-128504000D01*
X155600000Y-125964000D02*
X153060000Y-125964000D01*
X145440000Y-125964000D02*
X145440000Y-128504000D01*
X145440000Y-125964000D02*
X142900000Y-125964000D01*
X142900000Y-125964000D02*
X142900000Y-128504000D01*
X144424000Y-128504000D02*
X144424000Y-134600000D01*
X144424000Y-134600000D02*
X143916000Y-134600000D01*
X143916000Y-134600000D02*
X143916000Y-128504000D01*
X142900000Y-128504000D02*
X145440000Y-128504000D01*
X140360000Y-128504000D02*
X142900000Y-128504000D01*
X141376000Y-134600000D02*
X141376000Y-128504000D01*
X141884000Y-134600000D02*
X141376000Y-134600000D01*
X141884000Y-128504000D02*
X141884000Y-134600000D01*
X140360000Y-125964000D02*
X140360000Y-128504000D01*
X142900000Y-125964000D02*
X140360000Y-125964000D01*
X142900000Y-125964000D02*
X142900000Y-128504000D01*
X147980000Y-125964000D02*
X147980000Y-128504000D01*
X147980000Y-125964000D02*
X145440000Y-125964000D01*
X145440000Y-125964000D02*
X145440000Y-128504000D01*
X146964000Y-128504000D02*
X146964000Y-134600000D01*
X146964000Y-134600000D02*
X146456000Y-134600000D01*
X146456000Y-134600000D02*
X146456000Y-128504000D01*
X145440000Y-128504000D02*
X147980000Y-128504000D01*
X147980000Y-128504000D02*
X150520000Y-128504000D01*
X148996000Y-134600000D02*
X148996000Y-128504000D01*
X149504000Y-134600000D02*
X148996000Y-134600000D01*
X149504000Y-128504000D02*
X149504000Y-134600000D01*
X147980000Y-125964000D02*
X147980000Y-128504000D01*
X150520000Y-125964000D02*
X147980000Y-125964000D01*
X150520000Y-125964000D02*
X150520000Y-128504000D01*
X140850840Y-92540240D02*
X140899100Y-92540240D01*
X143649820Y-91839200D02*
X143649820Y-92540240D01*
X143649820Y-92540240D02*
X143400900Y-92540240D01*
X140850840Y-92540240D02*
X140650180Y-92540240D01*
X140650180Y-92540240D02*
X140650180Y-91839200D01*
X136650840Y-96690240D02*
X136699100Y-96690240D01*
X139449820Y-95989200D02*
X139449820Y-96690240D01*
X139449820Y-96690240D02*
X139200900Y-96690240D01*
X136650840Y-96690240D02*
X136450180Y-96690240D01*
X136450180Y-96690240D02*
X136450180Y-95989200D01*
X148325000Y-96400000D02*
X148325000Y-95400000D01*
X149675000Y-95400000D02*
X149675000Y-96400000D01*
X150475000Y-96400000D02*
X150475000Y-95400000D01*
X151825000Y-95400000D02*
X151825000Y-96400000D01*
X152625000Y-96400000D02*
X152625000Y-95400000D01*
X153975000Y-95400000D02*
X153975000Y-96400000D01*
X133320000Y-98135000D02*
X132320000Y-98135000D01*
X132320000Y-96785000D02*
X133320000Y-96785000D01*
X146175000Y-96400000D02*
X146175000Y-95400000D01*
X147525000Y-95400000D02*
X147525000Y-96400000D01*
X141400000Y-94195000D02*
X142400000Y-94195000D01*
X142400000Y-95545000D02*
X141400000Y-95545000D01*
X142420000Y-97265000D02*
X141420000Y-97265000D01*
X141420000Y-95915000D02*
X142420000Y-95915000D01*
X144025000Y-96400000D02*
X144025000Y-95400000D01*
X145375000Y-95400000D02*
X145375000Y-96400000D01*
X156650000Y-92800000D02*
G75*
G03X156650000Y-92800000I-100000J0D01*
G01*
X157100000Y-93050000D02*
X156600000Y-93050000D01*
X157100000Y-95950000D02*
X157100000Y-93050000D01*
X156600000Y-95950000D02*
X157100000Y-95950000D01*
X156600000Y-93050000D02*
X156600000Y-95950000D01*
X162286667Y-120688571D02*
X161953333Y-120688571D01*
X161953333Y-121212381D02*
X161953333Y-120212381D01*
X162429524Y-120212381D01*
X162715238Y-120212381D02*
X163334286Y-120212381D01*
X163000952Y-120593333D01*
X163143810Y-120593333D01*
X163239048Y-120640952D01*
X163286667Y-120688571D01*
X163334286Y-120783810D01*
X163334286Y-121021905D01*
X163286667Y-121117143D01*
X163239048Y-121164762D01*
X163143810Y-121212381D01*
X162858095Y-121212381D01*
X162762857Y-121164762D01*
X162715238Y-121117143D01*
X132496667Y-94898571D02*
X132163333Y-94898571D01*
X132163333Y-95422381D02*
X132163333Y-94422381D01*
X132639524Y-94422381D01*
X132972857Y-94517619D02*
X133020476Y-94470000D01*
X133115714Y-94422381D01*
X133353810Y-94422381D01*
X133449048Y-94470000D01*
X133496667Y-94517619D01*
X133544286Y-94612857D01*
X133544286Y-94708095D01*
X133496667Y-94850952D01*
X132925238Y-95422381D01*
X133544286Y-95422381D01*
X136428631Y-109073155D02*
X137238155Y-109073155D01*
X137333393Y-109025536D01*
X137381012Y-108977917D01*
X137428631Y-108882679D01*
X137428631Y-108692202D01*
X137381012Y-108596964D01*
X137333393Y-108549345D01*
X137238155Y-108501726D01*
X136428631Y-108501726D01*
X137428631Y-107501726D02*
X137428631Y-108073155D01*
X137428631Y-107787441D02*
X136428631Y-107787441D01*
X136571488Y-107882679D01*
X136666726Y-107977917D01*
X136714345Y-108073155D01*
X140607143Y-115816666D02*
X140654762Y-115864285D01*
X140702381Y-116007142D01*
X140702381Y-116102380D01*
X140654762Y-116245238D01*
X140559524Y-116340476D01*
X140464286Y-116388095D01*
X140273810Y-116435714D01*
X140130952Y-116435714D01*
X139940476Y-116388095D01*
X139845238Y-116340476D01*
X139750000Y-116245238D01*
X139702381Y-116102380D01*
X139702381Y-116007142D01*
X139750000Y-115864285D01*
X139797619Y-115816666D01*
X139797619Y-115435714D02*
X139750000Y-115388095D01*
X139702381Y-115292857D01*
X139702381Y-115054761D01*
X139750000Y-114959523D01*
X139797619Y-114911904D01*
X139892857Y-114864285D01*
X139988095Y-114864285D01*
X140130952Y-114911904D01*
X140702381Y-115483333D01*
X140702381Y-114864285D01*
X152457143Y-110016666D02*
X152504762Y-110064285D01*
X152552381Y-110207142D01*
X152552381Y-110302380D01*
X152504762Y-110445238D01*
X152409524Y-110540476D01*
X152314286Y-110588095D01*
X152123810Y-110635714D01*
X151980952Y-110635714D01*
X151790476Y-110588095D01*
X151695238Y-110540476D01*
X151600000Y-110445238D01*
X151552381Y-110302380D01*
X151552381Y-110207142D01*
X151600000Y-110064285D01*
X151647619Y-110016666D01*
X151552381Y-109683333D02*
X151552381Y-109064285D01*
X151933333Y-109397619D01*
X151933333Y-109254761D01*
X151980952Y-109159523D01*
X152028571Y-109111904D01*
X152123810Y-109064285D01*
X152361905Y-109064285D01*
X152457143Y-109111904D01*
X152504762Y-109159523D01*
X152552381Y-109254761D01*
X152552381Y-109540476D01*
X152504762Y-109635714D01*
X152457143Y-109683333D01*
X130237143Y-115806666D02*
X130284762Y-115854285D01*
X130332381Y-115997142D01*
X130332381Y-116092380D01*
X130284762Y-116235238D01*
X130189524Y-116330476D01*
X130094286Y-116378095D01*
X129903810Y-116425714D01*
X129760952Y-116425714D01*
X129570476Y-116378095D01*
X129475238Y-116330476D01*
X129380000Y-116235238D01*
X129332381Y-116092380D01*
X129332381Y-115997142D01*
X129380000Y-115854285D01*
X129427619Y-115806666D01*
X129665714Y-114949523D02*
X130332381Y-114949523D01*
X129284762Y-115187619D02*
X129999048Y-115425714D01*
X129999048Y-114806666D01*
X132467143Y-107236666D02*
X132514762Y-107284285D01*
X132562381Y-107427142D01*
X132562381Y-107522380D01*
X132514762Y-107665238D01*
X132419524Y-107760476D01*
X132324286Y-107808095D01*
X132133810Y-107855714D01*
X131990952Y-107855714D01*
X131800476Y-107808095D01*
X131705238Y-107760476D01*
X131610000Y-107665238D01*
X131562381Y-107522380D01*
X131562381Y-107427142D01*
X131610000Y-107284285D01*
X131657619Y-107236666D01*
X131562381Y-106331904D02*
X131562381Y-106808095D01*
X132038571Y-106855714D01*
X131990952Y-106808095D01*
X131943333Y-106712857D01*
X131943333Y-106474761D01*
X131990952Y-106379523D01*
X132038571Y-106331904D01*
X132133810Y-106284285D01*
X132371905Y-106284285D01*
X132467143Y-106331904D01*
X132514762Y-106379523D01*
X132562381Y-106474761D01*
X132562381Y-106712857D01*
X132514762Y-106808095D01*
X132467143Y-106855714D01*
X134127143Y-107226666D02*
X134174762Y-107274285D01*
X134222381Y-107417142D01*
X134222381Y-107512380D01*
X134174762Y-107655238D01*
X134079524Y-107750476D01*
X133984286Y-107798095D01*
X133793810Y-107845714D01*
X133650952Y-107845714D01*
X133460476Y-107798095D01*
X133365238Y-107750476D01*
X133270000Y-107655238D01*
X133222381Y-107512380D01*
X133222381Y-107417142D01*
X133270000Y-107274285D01*
X133317619Y-107226666D01*
X133222381Y-106369523D02*
X133222381Y-106560000D01*
X133270000Y-106655238D01*
X133317619Y-106702857D01*
X133460476Y-106798095D01*
X133650952Y-106845714D01*
X134031905Y-106845714D01*
X134127143Y-106798095D01*
X134174762Y-106750476D01*
X134222381Y-106655238D01*
X134222381Y-106464761D01*
X134174762Y-106369523D01*
X134127143Y-106321904D01*
X134031905Y-106274285D01*
X133793810Y-106274285D01*
X133698571Y-106321904D01*
X133650952Y-106369523D01*
X133603333Y-106464761D01*
X133603333Y-106655238D01*
X133650952Y-106750476D01*
X133698571Y-106798095D01*
X133793810Y-106845714D01*
X137803334Y-104497143D02*
X137755715Y-104544762D01*
X137612858Y-104592381D01*
X137517620Y-104592381D01*
X137374762Y-104544762D01*
X137279524Y-104449524D01*
X137231905Y-104354286D01*
X137184286Y-104163810D01*
X137184286Y-104020952D01*
X137231905Y-103830476D01*
X137279524Y-103735238D01*
X137374762Y-103640000D01*
X137517620Y-103592381D01*
X137612858Y-103592381D01*
X137755715Y-103640000D01*
X137803334Y-103687619D01*
X138374762Y-104020952D02*
X138279524Y-103973333D01*
X138231905Y-103925714D01*
X138184286Y-103830476D01*
X138184286Y-103782857D01*
X138231905Y-103687619D01*
X138279524Y-103640000D01*
X138374762Y-103592381D01*
X138565239Y-103592381D01*
X138660477Y-103640000D01*
X138708096Y-103687619D01*
X138755715Y-103782857D01*
X138755715Y-103830476D01*
X138708096Y-103925714D01*
X138660477Y-103973333D01*
X138565239Y-104020952D01*
X138374762Y-104020952D01*
X138279524Y-104068571D01*
X138231905Y-104116190D01*
X138184286Y-104211429D01*
X138184286Y-104401905D01*
X138231905Y-104497143D01*
X138279524Y-104544762D01*
X138374762Y-104592381D01*
X138565239Y-104592381D01*
X138660477Y-104544762D01*
X138708096Y-104497143D01*
X138755715Y-104401905D01*
X138755715Y-104211429D01*
X138708096Y-104116190D01*
X138660477Y-104068571D01*
X138565239Y-104020952D01*
X147553334Y-104707143D02*
X147505715Y-104754762D01*
X147362858Y-104802381D01*
X147267620Y-104802381D01*
X147124762Y-104754762D01*
X147029524Y-104659524D01*
X146981905Y-104564286D01*
X146934286Y-104373810D01*
X146934286Y-104230952D01*
X146981905Y-104040476D01*
X147029524Y-103945238D01*
X147124762Y-103850000D01*
X147267620Y-103802381D01*
X147362858Y-103802381D01*
X147505715Y-103850000D01*
X147553334Y-103897619D01*
X148029524Y-104802381D02*
X148220000Y-104802381D01*
X148315239Y-104754762D01*
X148362858Y-104707143D01*
X148458096Y-104564286D01*
X148505715Y-104373810D01*
X148505715Y-103992857D01*
X148458096Y-103897619D01*
X148410477Y-103850000D01*
X148315239Y-103802381D01*
X148124762Y-103802381D01*
X148029524Y-103850000D01*
X147981905Y-103897619D01*
X147934286Y-103992857D01*
X147934286Y-104230952D01*
X147981905Y-104326190D01*
X148029524Y-104373810D01*
X148124762Y-104421429D01*
X148315239Y-104421429D01*
X148410477Y-104373810D01*
X148458096Y-104326190D01*
X148505715Y-104230952D01*
X158887143Y-95397143D02*
X158839524Y-95444762D01*
X158696667Y-95492381D01*
X158601429Y-95492381D01*
X158458571Y-95444762D01*
X158363333Y-95349524D01*
X158315714Y-95254286D01*
X158268095Y-95063810D01*
X158268095Y-94920952D01*
X158315714Y-94730476D01*
X158363333Y-94635238D01*
X158458571Y-94540000D01*
X158601429Y-94492381D01*
X158696667Y-94492381D01*
X158839524Y-94540000D01*
X158887143Y-94587619D01*
X159839524Y-95492381D02*
X159268095Y-95492381D01*
X159553809Y-95492381D02*
X159553809Y-94492381D01*
X159458571Y-94635238D01*
X159363333Y-94730476D01*
X159268095Y-94778095D01*
X160791905Y-95492381D02*
X160220476Y-95492381D01*
X160506190Y-95492381D02*
X160506190Y-94492381D01*
X160410952Y-94635238D01*
X160315714Y-94730476D01*
X160220476Y-94778095D01*
X156177143Y-94317143D02*
X156129524Y-94364762D01*
X155986667Y-94412381D01*
X155891429Y-94412381D01*
X155748571Y-94364762D01*
X155653333Y-94269524D01*
X155605714Y-94174286D01*
X155558095Y-93983810D01*
X155558095Y-93840952D01*
X155605714Y-93650476D01*
X155653333Y-93555238D01*
X155748571Y-93460000D01*
X155891429Y-93412381D01*
X155986667Y-93412381D01*
X156129524Y-93460000D01*
X156177143Y-93507619D01*
X157129524Y-94412381D02*
X156558095Y-94412381D01*
X156843809Y-94412381D02*
X156843809Y-93412381D01*
X156748571Y-93555238D01*
X156653333Y-93650476D01*
X156558095Y-93698095D01*
X157510476Y-93507619D02*
X157558095Y-93460000D01*
X157653333Y-93412381D01*
X157891429Y-93412381D01*
X157986667Y-93460000D01*
X158034286Y-93507619D01*
X158081905Y-93602857D01*
X158081905Y-93698095D01*
X158034286Y-93840952D01*
X157462857Y-94412381D01*
X158081905Y-94412381D01*
X138037143Y-95487143D02*
X137989524Y-95534762D01*
X137846667Y-95582381D01*
X137751429Y-95582381D01*
X137608571Y-95534762D01*
X137513333Y-95439524D01*
X137465714Y-95344286D01*
X137418095Y-95153810D01*
X137418095Y-95010952D01*
X137465714Y-94820476D01*
X137513333Y-94725238D01*
X137608571Y-94630000D01*
X137751429Y-94582381D01*
X137846667Y-94582381D01*
X137989524Y-94630000D01*
X138037143Y-94677619D01*
X138989524Y-95582381D02*
X138418095Y-95582381D01*
X138703809Y-95582381D02*
X138703809Y-94582381D01*
X138608571Y-94725238D01*
X138513333Y-94820476D01*
X138418095Y-94868095D01*
X139894286Y-94582381D02*
X139418095Y-94582381D01*
X139370476Y-95058571D01*
X139418095Y-95010952D01*
X139513333Y-94963333D01*
X139751429Y-94963333D01*
X139846667Y-95010952D01*
X139894286Y-95058571D01*
X139941905Y-95153810D01*
X139941905Y-95391905D01*
X139894286Y-95487143D01*
X139846667Y-95534762D01*
X139751429Y-95582381D01*
X139513333Y-95582381D01*
X139418095Y-95534762D01*
X139370476Y-95487143D01*
X147952381Y-92587395D02*
X146952381Y-92587395D01*
X146952381Y-92349300D01*
X147000000Y-92206442D01*
X147095238Y-92111204D01*
X147190476Y-92063585D01*
X147380952Y-92015966D01*
X147523810Y-92015966D01*
X147714286Y-92063585D01*
X147809524Y-92111204D01*
X147904762Y-92206442D01*
X147952381Y-92349300D01*
X147952381Y-92587395D01*
X147952381Y-91063585D02*
X147952381Y-91635014D01*
X147952381Y-91349300D02*
X146952381Y-91349300D01*
X147095238Y-91444538D01*
X147190476Y-91539776D01*
X147238095Y-91635014D01*
X150102381Y-92587395D02*
X149102381Y-92587395D01*
X149102381Y-92349300D01*
X149150000Y-92206442D01*
X149245238Y-92111204D01*
X149340476Y-92063585D01*
X149530952Y-92015966D01*
X149673810Y-92015966D01*
X149864286Y-92063585D01*
X149959524Y-92111204D01*
X150054762Y-92206442D01*
X150102381Y-92349300D01*
X150102381Y-92587395D01*
X149197619Y-91635014D02*
X149150000Y-91587395D01*
X149102381Y-91492157D01*
X149102381Y-91254061D01*
X149150000Y-91158823D01*
X149197619Y-91111204D01*
X149292857Y-91063585D01*
X149388095Y-91063585D01*
X149530952Y-91111204D01*
X150102381Y-91682633D01*
X150102381Y-91063585D01*
X152252381Y-92587395D02*
X151252381Y-92587395D01*
X151252381Y-92349300D01*
X151300000Y-92206442D01*
X151395238Y-92111204D01*
X151490476Y-92063585D01*
X151680952Y-92015966D01*
X151823810Y-92015966D01*
X152014286Y-92063585D01*
X152109524Y-92111204D01*
X152204762Y-92206442D01*
X152252381Y-92349300D01*
X152252381Y-92587395D01*
X151252381Y-91682633D02*
X151252381Y-91063585D01*
X151633333Y-91396919D01*
X151633333Y-91254061D01*
X151680952Y-91158823D01*
X151728571Y-91111204D01*
X151823810Y-91063585D01*
X152061905Y-91063585D01*
X152157143Y-91111204D01*
X152204762Y-91158823D01*
X152252381Y-91254061D01*
X152252381Y-91539776D01*
X152204762Y-91635014D01*
X152157143Y-91682633D01*
X130431905Y-97222381D02*
X130431905Y-96222381D01*
X130812858Y-96222381D01*
X130908096Y-96270000D01*
X130955715Y-96317619D01*
X131003334Y-96412857D01*
X131003334Y-96555714D01*
X130955715Y-96650952D01*
X130908096Y-96698571D01*
X130812858Y-96746190D01*
X130431905Y-96746190D01*
X131955715Y-97222381D02*
X131384286Y-97222381D01*
X131670000Y-97222381D02*
X131670000Y-96222381D01*
X131574762Y-96365238D01*
X131479524Y-96460476D01*
X131384286Y-96508095D01*
X159882381Y-125178095D02*
X158882381Y-125178095D01*
X158882381Y-124797142D01*
X158930000Y-124701904D01*
X158977619Y-124654285D01*
X159072857Y-124606666D01*
X159215714Y-124606666D01*
X159310952Y-124654285D01*
X159358571Y-124701904D01*
X159406190Y-124797142D01*
X159406190Y-125178095D01*
X158977619Y-124225714D02*
X158930000Y-124178095D01*
X158882381Y-124082857D01*
X158882381Y-123844761D01*
X158930000Y-123749523D01*
X158977619Y-123701904D01*
X159072857Y-123654285D01*
X159168095Y-123654285D01*
X159310952Y-123701904D01*
X159882381Y-124273333D01*
X159882381Y-123654285D01*
X163041905Y-98282381D02*
X163041905Y-97282381D01*
X163422858Y-97282381D01*
X163518096Y-97330000D01*
X163565715Y-97377619D01*
X163613334Y-97472857D01*
X163613334Y-97615714D01*
X163565715Y-97710952D01*
X163518096Y-97758571D01*
X163422858Y-97806190D01*
X163041905Y-97806190D01*
X164184762Y-97710952D02*
X164089524Y-97663333D01*
X164041905Y-97615714D01*
X163994286Y-97520476D01*
X163994286Y-97472857D01*
X164041905Y-97377619D01*
X164089524Y-97330000D01*
X164184762Y-97282381D01*
X164375239Y-97282381D01*
X164470477Y-97330000D01*
X164518096Y-97377619D01*
X164565715Y-97472857D01*
X164565715Y-97520476D01*
X164518096Y-97615714D01*
X164470477Y-97663333D01*
X164375239Y-97710952D01*
X164184762Y-97710952D01*
X164089524Y-97758571D01*
X164041905Y-97806190D01*
X163994286Y-97901429D01*
X163994286Y-98091905D01*
X164041905Y-98187143D01*
X164089524Y-98234762D01*
X164184762Y-98282381D01*
X164375239Y-98282381D01*
X164470477Y-98234762D01*
X164518096Y-98187143D01*
X164565715Y-98091905D01*
X164565715Y-97901429D01*
X164518096Y-97806190D01*
X164470477Y-97758571D01*
X164375239Y-97710952D01*
X163111905Y-95282381D02*
X163111905Y-94282381D01*
X163492858Y-94282381D01*
X163588096Y-94330000D01*
X163635715Y-94377619D01*
X163683334Y-94472857D01*
X163683334Y-94615714D01*
X163635715Y-94710952D01*
X163588096Y-94758571D01*
X163492858Y-94806190D01*
X163111905Y-94806190D01*
X164159524Y-95282381D02*
X164350000Y-95282381D01*
X164445239Y-95234762D01*
X164492858Y-95187143D01*
X164588096Y-95044286D01*
X164635715Y-94853810D01*
X164635715Y-94472857D01*
X164588096Y-94377619D01*
X164540477Y-94330000D01*
X164445239Y-94282381D01*
X164254762Y-94282381D01*
X164159524Y-94330000D01*
X164111905Y-94377619D01*
X164064286Y-94472857D01*
X164064286Y-94710952D01*
X164111905Y-94806190D01*
X164159524Y-94853810D01*
X164254762Y-94901429D01*
X164445239Y-94901429D01*
X164540477Y-94853810D01*
X164588096Y-94806190D01*
X164635715Y-94710952D01*
X142054762Y-94687619D02*
X141959524Y-94640000D01*
X141864286Y-94544762D01*
X141721429Y-94401905D01*
X141626190Y-94354286D01*
X141530952Y-94354286D01*
X141578571Y-94592381D02*
X141483333Y-94544762D01*
X141388095Y-94449524D01*
X141340476Y-94259048D01*
X141340476Y-93925714D01*
X141388095Y-93735238D01*
X141483333Y-93640000D01*
X141578571Y-93592381D01*
X141769048Y-93592381D01*
X141864286Y-93640000D01*
X141959524Y-93735238D01*
X142007143Y-93925714D01*
X142007143Y-94259048D01*
X141959524Y-94449524D01*
X141864286Y-94544762D01*
X141769048Y-94592381D01*
X141578571Y-94592381D01*
X142340476Y-93592381D02*
X142959524Y-93592381D01*
X142626190Y-93973333D01*
X142769048Y-93973333D01*
X142864286Y-94020952D01*
X142911905Y-94068571D01*
X142959524Y-94163810D01*
X142959524Y-94401905D01*
X142911905Y-94497143D01*
X142864286Y-94544762D01*
X142769048Y-94592381D01*
X142483333Y-94592381D01*
X142388095Y-94544762D01*
X142340476Y-94497143D01*
X137854762Y-98837619D02*
X137759524Y-98790000D01*
X137664286Y-98694762D01*
X137521429Y-98551905D01*
X137426190Y-98504286D01*
X137330952Y-98504286D01*
X137378571Y-98742381D02*
X137283333Y-98694762D01*
X137188095Y-98599524D01*
X137140476Y-98409048D01*
X137140476Y-98075714D01*
X137188095Y-97885238D01*
X137283333Y-97790000D01*
X137378571Y-97742381D01*
X137569048Y-97742381D01*
X137664286Y-97790000D01*
X137759524Y-97885238D01*
X137807143Y-98075714D01*
X137807143Y-98409048D01*
X137759524Y-98599524D01*
X137664286Y-98694762D01*
X137569048Y-98742381D01*
X137378571Y-98742381D01*
X138664286Y-98075714D02*
X138664286Y-98742381D01*
X138426190Y-97694762D02*
X138188095Y-98409048D01*
X138807143Y-98409048D01*
X151352381Y-96066666D02*
X150876190Y-96400000D01*
X151352381Y-96638095D02*
X150352381Y-96638095D01*
X150352381Y-96257142D01*
X150400000Y-96161904D01*
X150447619Y-96114285D01*
X150542857Y-96066666D01*
X150685714Y-96066666D01*
X150780952Y-96114285D01*
X150828571Y-96161904D01*
X150876190Y-96257142D01*
X150876190Y-96638095D01*
X151352381Y-95114285D02*
X151352381Y-95685714D01*
X151352381Y-95400000D02*
X150352381Y-95400000D01*
X150495238Y-95495238D01*
X150590476Y-95590476D01*
X150638095Y-95685714D01*
X153502381Y-96066666D02*
X153026190Y-96400000D01*
X153502381Y-96638095D02*
X152502381Y-96638095D01*
X152502381Y-96257142D01*
X152550000Y-96161904D01*
X152597619Y-96114285D01*
X152692857Y-96066666D01*
X152835714Y-96066666D01*
X152930952Y-96114285D01*
X152978571Y-96161904D01*
X153026190Y-96257142D01*
X153026190Y-96638095D01*
X152597619Y-95685714D02*
X152550000Y-95638095D01*
X152502381Y-95542857D01*
X152502381Y-95304761D01*
X152550000Y-95209523D01*
X152597619Y-95161904D01*
X152692857Y-95114285D01*
X152788095Y-95114285D01*
X152930952Y-95161904D01*
X153502381Y-95733333D01*
X153502381Y-95114285D01*
X155652381Y-96066666D02*
X155176190Y-96400000D01*
X155652381Y-96638095D02*
X154652381Y-96638095D01*
X154652381Y-96257142D01*
X154700000Y-96161904D01*
X154747619Y-96114285D01*
X154842857Y-96066666D01*
X154985714Y-96066666D01*
X155080952Y-96114285D01*
X155128571Y-96161904D01*
X155176190Y-96257142D01*
X155176190Y-96638095D01*
X154652381Y-95733333D02*
X154652381Y-95114285D01*
X155033333Y-95447619D01*
X155033333Y-95304761D01*
X155080952Y-95209523D01*
X155128571Y-95161904D01*
X155223810Y-95114285D01*
X155461905Y-95114285D01*
X155557143Y-95161904D01*
X155604762Y-95209523D01*
X155652381Y-95304761D01*
X155652381Y-95590476D01*
X155604762Y-95685714D01*
X155557143Y-95733333D01*
X132653334Y-96012381D02*
X132320000Y-95536190D01*
X132081905Y-96012381D02*
X132081905Y-95012381D01*
X132462858Y-95012381D01*
X132558096Y-95060000D01*
X132605715Y-95107619D01*
X132653334Y-95202857D01*
X132653334Y-95345714D01*
X132605715Y-95440952D01*
X132558096Y-95488571D01*
X132462858Y-95536190D01*
X132081905Y-95536190D01*
X132986667Y-95012381D02*
X133653334Y-95012381D01*
X133224762Y-96012381D01*
X149202381Y-96066666D02*
X148726190Y-96400000D01*
X149202381Y-96638095D02*
X148202381Y-96638095D01*
X148202381Y-96257142D01*
X148250000Y-96161904D01*
X148297619Y-96114285D01*
X148392857Y-96066666D01*
X148535714Y-96066666D01*
X148630952Y-96114285D01*
X148678571Y-96161904D01*
X148726190Y-96257142D01*
X148726190Y-96638095D01*
X148630952Y-95495238D02*
X148583333Y-95590476D01*
X148535714Y-95638095D01*
X148440476Y-95685714D01*
X148392857Y-95685714D01*
X148297619Y-95638095D01*
X148250000Y-95590476D01*
X148202381Y-95495238D01*
X148202381Y-95304761D01*
X148250000Y-95209523D01*
X148297619Y-95161904D01*
X148392857Y-95114285D01*
X148440476Y-95114285D01*
X148535714Y-95161904D01*
X148583333Y-95209523D01*
X148630952Y-95304761D01*
X148630952Y-95495238D01*
X148678571Y-95590476D01*
X148726190Y-95638095D01*
X148821429Y-95685714D01*
X149011905Y-95685714D01*
X149107143Y-95638095D01*
X149154762Y-95590476D01*
X149202381Y-95495238D01*
X149202381Y-95304761D01*
X149154762Y-95209523D01*
X149107143Y-95161904D01*
X149011905Y-95114285D01*
X148821429Y-95114285D01*
X148726190Y-95161904D01*
X148678571Y-95209523D01*
X148630952Y-95304761D01*
X141733334Y-97222381D02*
X141400000Y-96746190D01*
X141161905Y-97222381D02*
X141161905Y-96222381D01*
X141542858Y-96222381D01*
X141638096Y-96270000D01*
X141685715Y-96317619D01*
X141733334Y-96412857D01*
X141733334Y-96555714D01*
X141685715Y-96650952D01*
X141638096Y-96698571D01*
X141542858Y-96746190D01*
X141161905Y-96746190D01*
X142209524Y-97222381D02*
X142400000Y-97222381D01*
X142495239Y-97174762D01*
X142542858Y-97127143D01*
X142638096Y-96984286D01*
X142685715Y-96793810D01*
X142685715Y-96412857D01*
X142638096Y-96317619D01*
X142590477Y-96270000D01*
X142495239Y-96222381D01*
X142304762Y-96222381D01*
X142209524Y-96270000D01*
X142161905Y-96317619D01*
X142114286Y-96412857D01*
X142114286Y-96650952D01*
X142161905Y-96746190D01*
X142209524Y-96793810D01*
X142304762Y-96841429D01*
X142495239Y-96841429D01*
X142590477Y-96793810D01*
X142638096Y-96746190D01*
X142685715Y-96650952D01*
X141277143Y-95142381D02*
X140943809Y-94666190D01*
X140705714Y-95142381D02*
X140705714Y-94142381D01*
X141086667Y-94142381D01*
X141181905Y-94190000D01*
X141229524Y-94237619D01*
X141277143Y-94332857D01*
X141277143Y-94475714D01*
X141229524Y-94570952D01*
X141181905Y-94618571D01*
X141086667Y-94666190D01*
X140705714Y-94666190D01*
X142229524Y-95142381D02*
X141658095Y-95142381D01*
X141943809Y-95142381D02*
X141943809Y-94142381D01*
X141848571Y-94285238D01*
X141753333Y-94380476D01*
X141658095Y-94428095D01*
X142848571Y-94142381D02*
X142943810Y-94142381D01*
X143039048Y-94190000D01*
X143086667Y-94237619D01*
X143134286Y-94332857D01*
X143181905Y-94523333D01*
X143181905Y-94761429D01*
X143134286Y-94951905D01*
X143086667Y-95047143D01*
X143039048Y-95094762D01*
X142943810Y-95142381D01*
X142848571Y-95142381D01*
X142753333Y-95094762D01*
X142705714Y-95047143D01*
X142658095Y-94951905D01*
X142610476Y-94761429D01*
X142610476Y-94523333D01*
X142658095Y-94332857D01*
X142705714Y-94237619D01*
X142753333Y-94190000D01*
X142848571Y-94142381D01*
X147052381Y-96542857D02*
X146576190Y-96876191D01*
X147052381Y-97114286D02*
X146052381Y-97114286D01*
X146052381Y-96733333D01*
X146100000Y-96638095D01*
X146147619Y-96590476D01*
X146242857Y-96542857D01*
X146385714Y-96542857D01*
X146480952Y-96590476D01*
X146528571Y-96638095D01*
X146576190Y-96733333D01*
X146576190Y-97114286D01*
X147052381Y-95590476D02*
X147052381Y-96161905D01*
X147052381Y-95876191D02*
X146052381Y-95876191D01*
X146195238Y-95971429D01*
X146290476Y-96066667D01*
X146338095Y-96161905D01*
X147052381Y-94638095D02*
X147052381Y-95209524D01*
X147052381Y-94923810D02*
X146052381Y-94923810D01*
X146195238Y-95019048D01*
X146290476Y-95114286D01*
X146338095Y-95209524D01*
X156038095Y-91402381D02*
X156038095Y-92211905D01*
X156085714Y-92307143D01*
X156133333Y-92354762D01*
X156228571Y-92402381D01*
X156419048Y-92402381D01*
X156514286Y-92354762D01*
X156561905Y-92307143D01*
X156609524Y-92211905D01*
X156609524Y-91402381D01*
X156990476Y-91402381D02*
X157609524Y-91402381D01*
X157276190Y-91783333D01*
X157419048Y-91783333D01*
X157514286Y-91830952D01*
X157561905Y-91878571D01*
X157609524Y-91973810D01*
X157609524Y-92211905D01*
X157561905Y-92307143D01*
X157514286Y-92354762D01*
X157419048Y-92402381D01*
X157133333Y-92402381D01*
X157038095Y-92354762D01*
X156990476Y-92307143D01*
X131126667Y-120588571D02*
X130793333Y-120588571D01*
X130793333Y-121112381D02*
X130793333Y-120112381D01*
X131269524Y-120112381D01*
X132174286Y-121112381D02*
X131602857Y-121112381D01*
X131888571Y-121112381D02*
X131888571Y-120112381D01*
X131793333Y-120255238D01*
X131698095Y-120350476D01*
X131602857Y-120398095D01*
M02*
