G04 #@! TF.FileFunction,Copper,L1,Top,Signal*
%FSLAX46Y46*%
G04 Gerber Fmt 4.6, Leading zero omitted, Abs format (unit mm)*
G04 Created by KiCad (PCBNEW 4.0.1-stable) date Tuesday, May 24, 2016 'PMt' 11:55:58 PM*
%MOMM*%
G01*
G04 APERTURE LIST*
%ADD10C,0.100000*%
%ADD11C,1.000000*%
%ADD12R,0.300000X0.850000*%
%ADD13R,0.850000X0.300000*%
%ADD14R,1.837500X1.837500*%
%ADD15R,0.700000X0.200000*%
%ADD16R,0.750000X1.200000*%
%ADD17R,1.600000X2.000000*%
%ADD18R,1.200000X0.750000*%
%ADD19R,2.000000X1.600000*%
%ADD20R,0.797560X0.797560*%
%ADD21C,1.524000*%
%ADD22R,1.727200X2.032000*%
%ADD23O,1.727200X2.032000*%
%ADD24O,0.900000X1.600000*%
%ADD25R,1.501140X1.501140*%
%ADD26R,0.800100X0.800100*%
%ADD27R,0.900000X1.200000*%
%ADD28R,1.200000X0.900000*%
%ADD29R,1.060000X0.650000*%
%ADD30C,0.685800*%
%ADD31C,0.685801*%
%ADD32C,0.152400*%
%ADD33C,0.203200*%
%ADD34C,0.304800*%
G04 APERTURE END LIST*
D10*
D11*
X164590000Y-120760000D03*
X134800000Y-94970000D03*
D12*
X139101250Y-112761250D03*
X139601250Y-112761250D03*
X140101250Y-112761250D03*
X140601250Y-112761250D03*
X141101250Y-112761250D03*
X141601250Y-112761250D03*
X142101250Y-112761250D03*
X142601250Y-112761250D03*
X143101250Y-112761250D03*
X143601250Y-112761250D03*
X144101250Y-112761250D03*
X144601250Y-112761250D03*
X145101250Y-112761250D03*
X145601250Y-112761250D03*
X146101250Y-112761250D03*
X146601250Y-112761250D03*
D13*
X147301250Y-112061250D03*
X147301250Y-111561250D03*
X147301250Y-111061250D03*
X147301250Y-110561250D03*
X147301250Y-110061250D03*
X147301250Y-109561250D03*
X147301250Y-109061250D03*
X147301250Y-108561250D03*
X147301250Y-108061250D03*
X147301250Y-107561250D03*
X147301250Y-107061250D03*
X147301250Y-106561250D03*
X147301250Y-106061250D03*
X147301250Y-105561250D03*
X147301250Y-105061250D03*
X147301250Y-104561250D03*
D12*
X146601250Y-103861250D03*
X146101250Y-103861250D03*
X145601250Y-103861250D03*
X145101250Y-103861250D03*
X144601250Y-103861250D03*
X144101250Y-103861250D03*
X143601250Y-103861250D03*
X143101250Y-103861250D03*
X142601250Y-103861250D03*
X142101250Y-103861250D03*
X141601250Y-103861250D03*
X141101250Y-103861250D03*
X140601250Y-103861250D03*
X140101250Y-103861250D03*
X139601250Y-103861250D03*
X139101250Y-103861250D03*
D13*
X138401250Y-104561250D03*
X138401250Y-105061250D03*
X138401250Y-105561250D03*
X138401250Y-106061250D03*
X138401250Y-106561250D03*
X138401250Y-107061250D03*
X138401250Y-107561250D03*
X138401250Y-108061250D03*
X138401250Y-108561250D03*
X138401250Y-109061250D03*
X138401250Y-109561250D03*
X138401250Y-110061250D03*
X138401250Y-110561250D03*
X138401250Y-111061250D03*
X138401250Y-111561250D03*
X138401250Y-112061250D03*
D14*
X145607500Y-105555000D03*
X143770000Y-105555000D03*
X141932500Y-105555000D03*
X140095000Y-105555000D03*
X145607500Y-107392500D03*
X143770000Y-107392500D03*
X141932500Y-107392500D03*
X140095000Y-107392500D03*
X145607500Y-109230000D03*
X143770000Y-109230000D03*
X141932500Y-109230000D03*
X140095000Y-109230000D03*
X145607500Y-111067500D03*
X143770000Y-111067500D03*
X141932500Y-111067500D03*
X140095000Y-111067500D03*
D15*
X161190000Y-100200000D03*
X161190000Y-100600000D03*
X161190000Y-101000000D03*
X161190000Y-101400000D03*
X161190000Y-101800000D03*
X161190000Y-102200000D03*
X161190000Y-102600000D03*
X161190000Y-103000000D03*
X161190000Y-103400000D03*
X161190000Y-103800000D03*
X161190000Y-107800000D03*
X161190000Y-107400000D03*
X161190000Y-107000000D03*
X161190000Y-106600000D03*
X161190000Y-106200000D03*
X161190000Y-105800000D03*
X161190000Y-105400000D03*
X161190000Y-105000000D03*
X161190000Y-104600000D03*
X161190000Y-104200000D03*
X161190000Y-108200000D03*
X161190000Y-108600000D03*
X161190000Y-109000000D03*
X161190000Y-109400000D03*
X161190000Y-109800000D03*
X161190000Y-110200000D03*
X161190000Y-110600000D03*
X161190000Y-111000000D03*
X161190000Y-111400000D03*
X161190000Y-111800000D03*
X161190000Y-115800000D03*
X161190000Y-115400000D03*
X161190000Y-115000000D03*
X161190000Y-114600000D03*
X161190000Y-114200000D03*
X161190000Y-113800000D03*
X161190000Y-113400000D03*
X161190000Y-113000000D03*
X161190000Y-112600000D03*
X161190000Y-112200000D03*
X158110000Y-112200000D03*
X158110000Y-112600000D03*
X158110000Y-113000000D03*
X158110000Y-113400000D03*
X158110000Y-113800000D03*
X158110000Y-114200000D03*
X158110000Y-114600000D03*
X158110000Y-115000000D03*
X158110000Y-115400000D03*
X158110000Y-115800000D03*
X158110000Y-111800000D03*
X158110000Y-111400000D03*
X158110000Y-111000000D03*
X158110000Y-110600000D03*
X158110000Y-110200000D03*
X158110000Y-109800000D03*
X158110000Y-109400000D03*
X158110000Y-109000000D03*
X158110000Y-108600000D03*
X158110000Y-108200000D03*
X158110000Y-104200000D03*
X158110000Y-104600000D03*
X158110000Y-105000000D03*
X158110000Y-105400000D03*
X158110000Y-105800000D03*
X158110000Y-106200000D03*
X158110000Y-106600000D03*
X158110000Y-107000000D03*
X158110000Y-107400000D03*
X158110000Y-107800000D03*
X158110000Y-103800000D03*
X158110000Y-103400000D03*
X158110000Y-103000000D03*
X158110000Y-102600000D03*
X158110000Y-102200000D03*
X158110000Y-101800000D03*
X158110000Y-101400000D03*
X158110000Y-101000000D03*
X158110000Y-100600000D03*
X158110000Y-100200000D03*
D16*
X142150000Y-116600000D03*
X142150000Y-114700000D03*
X150200000Y-108900000D03*
X150200000Y-110800000D03*
D17*
X132180000Y-117640000D03*
X132180000Y-113640000D03*
D16*
X134010000Y-108020000D03*
X134010000Y-106120000D03*
X135670000Y-108010000D03*
X135670000Y-106110000D03*
D18*
X138920000Y-102240000D03*
X137020000Y-102240000D03*
X148670000Y-102450000D03*
X146770000Y-102450000D03*
D19*
X157530000Y-97340000D03*
X161530000Y-97340000D03*
D18*
X157770000Y-92060000D03*
X155870000Y-92060000D03*
X139630000Y-93230000D03*
X137730000Y-93230000D03*
D20*
X149000000Y-91100000D03*
X149000000Y-92598600D03*
X151150000Y-91100000D03*
X151150000Y-92598600D03*
X153300000Y-91100000D03*
X153300000Y-92598600D03*
D21*
X131170000Y-99310000D03*
D22*
X154330000Y-124440000D03*
D23*
X151790000Y-124440000D03*
X149250000Y-124440000D03*
X146710000Y-124440000D03*
X144170000Y-124440000D03*
X141630000Y-124440000D03*
D24*
X139000000Y-91450000D03*
X145600000Y-91450000D03*
D25*
X163780000Y-101640000D03*
D21*
X163850000Y-97370000D03*
D26*
X143100000Y-90889240D03*
X141200000Y-90889240D03*
X142150000Y-92888220D03*
X138900000Y-95039240D03*
X137000000Y-95039240D03*
X137950000Y-97038220D03*
D27*
X149000000Y-94800000D03*
X149000000Y-97000000D03*
X151150000Y-94800000D03*
X151150000Y-97000000D03*
X153300000Y-94800000D03*
X153300000Y-97000000D03*
D28*
X131720000Y-97460000D03*
X133920000Y-97460000D03*
D27*
X146850000Y-94800000D03*
X146850000Y-97000000D03*
D28*
X143000000Y-94870000D03*
X140800000Y-94870000D03*
X140820000Y-96590000D03*
X143020000Y-96590000D03*
D27*
X144700000Y-94800000D03*
X144700000Y-97000000D03*
D29*
X155750000Y-93550000D03*
X155750000Y-94500000D03*
X155750000Y-95450000D03*
X157950000Y-95450000D03*
X157950000Y-93550000D03*
D11*
X133430000Y-120660000D03*
D30*
X154451587Y-102826839D03*
D31*
X160588314Y-99531520D03*
D30*
X153834541Y-102263278D03*
D31*
X158255617Y-99531520D03*
X158255617Y-99531522D03*
X159700726Y-117580726D03*
X154506546Y-113131215D03*
D30*
X137982580Y-112787438D03*
X136790000Y-113680000D03*
D31*
X160970000Y-117250000D03*
X155117689Y-112557540D03*
D30*
X151760000Y-121911626D03*
X138950000Y-100730000D03*
X156430000Y-120525197D03*
X145669370Y-102177076D03*
X137502167Y-100951020D03*
X153190000Y-122178749D03*
X143778481Y-102813871D03*
D31*
X162950000Y-117190000D03*
X154624470Y-113961090D03*
D30*
X158069461Y-120952898D03*
X154120000Y-122290000D03*
X139071797Y-99876988D03*
X157174977Y-120909395D03*
X144921484Y-102555581D03*
X144052978Y-102021887D03*
X138200228Y-99825697D03*
D31*
X163711422Y-114496355D03*
X155427033Y-113699487D03*
D30*
X155373528Y-122469951D03*
X159173336Y-121435096D03*
X163543355Y-113675166D03*
X149143601Y-106468857D03*
X151313033Y-106972906D03*
D31*
X163700000Y-112840000D03*
D30*
X156843729Y-114286122D03*
X152852183Y-113789204D03*
X151075042Y-110700306D03*
X150022686Y-104455304D03*
X148561444Y-105493216D03*
X163564649Y-110829965D03*
X150701465Y-107546128D03*
D31*
X162950000Y-111900000D03*
D30*
X156030904Y-114737928D03*
X153363520Y-113125025D03*
X151092987Y-109862286D03*
X149774691Y-105255990D03*
X135616978Y-113753156D03*
X138918068Y-113724917D03*
X138130000Y-117240000D03*
X136621097Y-119109441D03*
X156369892Y-102596435D03*
D31*
X162864656Y-100304757D03*
D30*
X155563838Y-102375923D03*
D31*
X162507971Y-99546222D03*
D30*
X155570291Y-101540284D03*
D31*
X161632194Y-99531520D03*
D30*
X152390146Y-100883731D03*
X150363080Y-101133863D03*
X144369695Y-98743452D03*
X153305640Y-98768564D03*
X137361722Y-104204639D03*
X135712876Y-98866738D03*
X135698810Y-102730579D03*
X153060000Y-99670000D03*
X145901870Y-99312432D03*
X134986112Y-99433785D03*
X135405483Y-103513079D03*
X144942060Y-98134563D03*
X133460000Y-109400000D03*
X134852325Y-98606319D03*
X152443011Y-98379695D03*
X133524001Y-104103671D03*
X133436074Y-99549837D03*
X153222374Y-100807940D03*
X142156362Y-99733638D03*
X134357523Y-104163578D03*
X133670000Y-100460000D03*
X151402655Y-103423651D03*
X141603856Y-100368126D03*
X150809246Y-117448703D03*
X148521138Y-118736065D03*
X153740654Y-117519248D03*
X149320693Y-119063646D03*
X154910076Y-105178103D03*
X149693907Y-100148076D03*
X154770014Y-106001954D03*
X148853138Y-99823840D03*
X156387940Y-107433350D03*
X157050000Y-107790000D03*
X156400000Y-108200000D03*
X157050000Y-108600000D03*
X156420000Y-109010000D03*
X157050000Y-109410000D03*
X151775805Y-105354851D03*
D31*
X156699489Y-110981520D03*
D30*
X147773516Y-100970096D03*
X151918480Y-108032229D03*
X152245373Y-104660513D03*
D31*
X155798312Y-111183021D03*
D30*
X147449225Y-100197167D03*
X152260258Y-108806156D03*
X151934202Y-114523895D03*
X148469298Y-107448584D03*
X153553216Y-115406045D03*
X148256721Y-106635709D03*
X147370000Y-116150000D03*
X149414755Y-115879981D03*
X157183169Y-105214626D03*
X137148650Y-107061250D03*
X145010000Y-92640000D03*
X142795339Y-116742423D03*
X163790000Y-103110000D03*
X148157400Y-103490000D03*
X132840000Y-119340000D03*
X131300000Y-119340000D03*
X138390000Y-103180000D03*
X149385597Y-109971397D03*
X162740000Y-106600000D03*
X162100000Y-106990000D03*
X162700000Y-107410000D03*
X162110000Y-107790000D03*
X162690000Y-108210000D03*
X162080000Y-108600000D03*
X162690000Y-108970000D03*
X162110000Y-109390000D03*
X159370000Y-96030000D03*
X137160000Y-91810000D03*
X140167141Y-115688214D03*
X137250992Y-103229027D03*
X163720000Y-99300000D03*
X148785214Y-104045383D03*
X132620000Y-115530000D03*
X130790000Y-107780000D03*
X149169512Y-111269983D03*
X147320000Y-103390000D03*
X159680000Y-103060000D03*
X159160000Y-90900000D03*
X134330000Y-109450000D03*
X135368823Y-104651020D03*
X155720000Y-96880000D03*
X143206155Y-97832794D03*
X139360000Y-96640000D03*
X146584684Y-116435705D03*
X147230000Y-113710000D03*
X148599982Y-108896500D03*
X145610000Y-116690000D03*
X145330000Y-115880000D03*
X144528589Y-116116828D03*
X150235706Y-116036146D03*
X146932851Y-118596297D03*
X157000000Y-106300000D03*
X147748962Y-118416547D03*
X152332622Y-116809013D03*
X155510000Y-109160000D03*
X156330000Y-105150000D03*
X155612149Y-106122754D03*
X133310000Y-96300000D03*
X154650631Y-91747720D03*
D31*
X163714047Y-109890000D03*
D30*
X154980000Y-97860000D03*
X132310000Y-100310000D03*
X146790000Y-91040000D03*
X163060000Y-105330000D03*
X164449030Y-103780970D03*
X134534401Y-100963489D03*
X136401740Y-104026480D03*
X138240000Y-96000000D03*
X148270000Y-95820000D03*
X152210000Y-95870000D03*
X139910000Y-99880900D03*
X139910000Y-100719100D03*
D32*
X138401250Y-111561250D02*
X137823850Y-111561250D01*
X160612785Y-115800200D02*
X161045015Y-115800200D01*
X154590274Y-119493890D02*
X156060111Y-118024053D01*
X137823850Y-111561250D02*
X137300578Y-112084522D01*
X158388932Y-118024053D02*
X160612785Y-115800200D01*
X137300578Y-112084522D02*
X137300578Y-112913687D01*
X137558498Y-117494322D02*
X139833976Y-119769800D01*
X137300578Y-112913687D02*
X137776313Y-113389422D01*
X137776313Y-113389422D02*
X137776313Y-115194022D01*
X137776313Y-115194022D02*
X137558498Y-115411837D01*
X137558498Y-115411837D02*
X137558498Y-117494322D01*
X139833976Y-119769800D02*
X149693928Y-119769800D01*
X149693928Y-119769800D02*
X150236979Y-119226749D01*
X150236979Y-119226749D02*
X152944660Y-119226749D01*
X152944660Y-119226749D02*
X153211801Y-119493890D01*
X153211801Y-119493890D02*
X154590274Y-119493890D01*
X156060111Y-118024053D02*
X158388932Y-118024053D01*
X150434715Y-118017665D02*
X153445476Y-118017665D01*
X148241233Y-116788246D02*
X148506490Y-117053503D01*
X155555087Y-116804809D02*
X157251008Y-116804809D01*
X153445476Y-118017665D02*
X153712617Y-118284806D01*
X149994762Y-117577712D02*
X150434715Y-118017665D01*
X148506490Y-117053503D02*
X148963065Y-117053503D01*
X147141250Y-112761250D02*
X148241233Y-113861233D01*
X153712617Y-118284806D02*
X154075090Y-118284806D01*
X157251008Y-116804809D02*
X158255617Y-115800200D01*
X148241233Y-113861233D02*
X148241233Y-116788246D01*
X154075090Y-118284806D02*
X155555087Y-116804809D01*
X149487274Y-117577712D02*
X149994762Y-117577712D01*
X148963065Y-117053503D02*
X149487274Y-117577712D01*
X146601250Y-112761250D02*
X147141250Y-112761250D01*
X152816893Y-104951521D02*
X152816893Y-103976600D01*
X147878650Y-110561250D02*
X148458499Y-111141099D01*
X152837534Y-107067254D02*
X152674948Y-106904668D01*
X148458499Y-111141099D02*
X148458499Y-111369883D01*
X152837534Y-109746066D02*
X152837534Y-107067254D01*
X148458499Y-111369883D02*
X148930117Y-111841501D01*
X150742099Y-111841501D02*
X152837534Y-109746066D01*
X152674948Y-106904668D02*
X152674948Y-105093466D01*
X152674948Y-105093466D02*
X152816893Y-104951521D01*
X148930117Y-111841501D02*
X150742099Y-111841501D01*
X153966654Y-102826839D02*
X154451587Y-102826839D01*
X147301250Y-110561250D02*
X147878650Y-110561250D01*
X152816893Y-103976600D02*
X153966654Y-102826839D01*
X160931213Y-99874419D02*
X160588314Y-99531520D01*
X161045015Y-99988221D02*
X160931213Y-99874419D01*
X161045015Y-100200200D02*
X161045015Y-99988221D01*
X147301250Y-109061250D02*
X147918908Y-109061250D01*
X147918908Y-109061250D02*
X148325660Y-109468002D01*
X150126185Y-107288282D02*
X151204304Y-106210163D01*
X149171502Y-109164829D02*
X149171502Y-108438823D01*
X153491642Y-102606177D02*
X153834541Y-102263278D01*
X150126185Y-107484140D02*
X150126185Y-107288282D01*
X151204304Y-106210163D02*
X151204304Y-104893515D01*
X149171502Y-108438823D02*
X150126185Y-107484140D01*
X148868329Y-109468002D02*
X149171502Y-109164829D01*
X148325660Y-109468002D02*
X148868329Y-109468002D01*
X151204304Y-104893515D02*
X153491642Y-102606177D01*
X158255617Y-100200200D02*
X158255617Y-99531520D01*
X136993687Y-113037863D02*
X137471502Y-113515678D01*
X137253687Y-117640578D02*
X139685180Y-120072071D01*
X139685180Y-120072071D02*
X149819132Y-120072071D01*
X137253687Y-115285581D02*
X137253687Y-117640578D01*
X153086597Y-119796161D02*
X154719070Y-119796161D01*
X149819132Y-120072071D02*
X150362183Y-119529020D01*
X136993687Y-111891413D02*
X136993687Y-113037863D01*
X138401250Y-111061250D02*
X137823850Y-111061250D01*
X137823850Y-111061250D02*
X136993687Y-111891413D01*
X159357827Y-117923625D02*
X159700726Y-117580726D01*
X137471502Y-115067766D02*
X137253687Y-115285581D01*
X154719070Y-119796161D02*
X156186367Y-118328864D01*
X156186367Y-118328864D02*
X158952588Y-118328864D01*
X152819456Y-119529020D02*
X153086597Y-119796161D01*
X150362183Y-119529020D02*
X152819456Y-119529020D01*
X158952588Y-118328864D02*
X159357827Y-117923625D01*
X137471502Y-113515678D02*
X137471502Y-115067766D01*
X160481693Y-116358767D02*
X159700726Y-117139734D01*
X161722881Y-115471399D02*
X161950000Y-115698518D01*
X161190316Y-115376401D02*
X161285314Y-115471399D01*
X161285314Y-115471399D02*
X161722881Y-115471399D01*
X161950000Y-115698518D02*
X161950000Y-116030000D01*
X161950000Y-116030000D02*
X161621233Y-116358767D01*
X161621233Y-116358767D02*
X160481693Y-116358767D01*
X159700726Y-117139734D02*
X159700726Y-117580726D01*
X155392011Y-113129042D02*
X154993652Y-113129042D01*
X155944652Y-112576401D02*
X155392011Y-113129042D01*
X158110316Y-112576401D02*
X155944652Y-112576401D01*
X154993652Y-113129042D02*
X154991479Y-113131215D01*
X154991479Y-113131215D02*
X154506546Y-113131215D01*
X150487387Y-119831291D02*
X149944336Y-120374342D01*
X161849137Y-115166588D02*
X162252271Y-115569722D01*
X149944336Y-120374342D02*
X139556384Y-120374342D01*
X136790000Y-114164933D02*
X136790000Y-113680000D01*
X136900000Y-114274933D02*
X136790000Y-114164933D01*
X139556384Y-120374342D02*
X136900000Y-117717958D01*
X154847866Y-120098432D02*
X152961393Y-120098432D01*
X156312623Y-118633675D02*
X154847866Y-120098432D01*
X160311038Y-117806897D02*
X159484260Y-118633675D01*
X160606897Y-116661038D02*
X160311038Y-116956897D01*
X161746437Y-116661038D02*
X160606897Y-116661038D01*
X162252271Y-115569722D02*
X162252271Y-116155204D01*
X161761077Y-115166588D02*
X161849137Y-115166588D01*
X161570890Y-114976401D02*
X161761077Y-115166588D01*
X152961393Y-120098432D02*
X152694252Y-119831291D01*
X160311038Y-116956897D02*
X160311038Y-117806897D01*
X152694252Y-119831291D02*
X150487387Y-119831291D01*
X162252271Y-116155204D02*
X161746437Y-116661038D01*
X161190316Y-114976401D02*
X161570890Y-114976401D01*
X136900000Y-117717958D02*
X136900000Y-114274933D01*
X159484260Y-118633675D02*
X156312623Y-118633675D01*
X138401250Y-112368768D02*
X138325479Y-112444539D01*
X138401250Y-112061250D02*
X138401250Y-112368768D01*
X138325479Y-112444539D02*
X137982580Y-112787438D01*
X136561502Y-117810527D02*
X139427588Y-120676613D01*
X160970000Y-117734933D02*
X160970000Y-117250000D01*
X159766447Y-118938486D02*
X160970000Y-117734933D01*
X154976662Y-120400703D02*
X156438879Y-118938486D01*
X136188498Y-112196602D02*
X136188498Y-114244322D01*
X138401250Y-110561250D02*
X137823850Y-110561250D01*
X156438879Y-118938486D02*
X159766447Y-118938486D01*
X137823850Y-110561250D02*
X136188498Y-112196602D01*
X139427588Y-120676613D02*
X150069540Y-120676613D01*
X136188498Y-114244322D02*
X136561502Y-114617326D01*
X152569048Y-120133562D02*
X152836189Y-120400703D01*
X136561502Y-114617326D02*
X136561502Y-117810527D01*
X150069540Y-120676613D02*
X150612591Y-120133562D01*
X152836189Y-120400703D02*
X154976662Y-120400703D01*
X150612591Y-120133562D02*
X152569048Y-120133562D01*
X162554542Y-116280408D02*
X161871641Y-116963309D01*
X161975393Y-114861777D02*
X162554542Y-115440926D01*
X161454933Y-117250000D02*
X160970000Y-117250000D01*
X161190316Y-114576401D02*
X161601957Y-114576401D01*
X161871641Y-116963309D02*
X161741624Y-116963309D01*
X161601957Y-114576401D02*
X161887333Y-114861777D01*
X161887333Y-114861777D02*
X161975393Y-114861777D01*
X162554542Y-115440926D02*
X162554542Y-116280408D01*
X161741624Y-116963309D02*
X161454933Y-117250000D01*
X155460588Y-112214641D02*
X155117689Y-112557540D01*
X155498828Y-112176401D02*
X155460588Y-112214641D01*
X158110316Y-112176401D02*
X155498828Y-112176401D01*
X135046443Y-102575935D02*
X133361181Y-102575935D01*
X132334644Y-109551535D02*
X134435855Y-111652746D01*
X134435855Y-118612153D02*
X138011670Y-122187968D01*
X151275067Y-121911626D02*
X151760000Y-121911626D01*
X150998725Y-122187968D02*
X151275067Y-121911626D01*
X138011670Y-122187968D02*
X150998725Y-122187968D01*
X132334644Y-103602472D02*
X132334644Y-109551535D01*
X136102378Y-101520000D02*
X135046443Y-102575935D01*
X138160000Y-101520000D02*
X136102378Y-101520000D01*
X133361181Y-102575935D02*
X132334644Y-103602472D01*
X134435855Y-111652746D02*
X134435855Y-118612153D01*
X138950000Y-100730000D02*
X138160000Y-101520000D01*
X161996845Y-117265580D02*
X161879106Y-117265580D01*
X162013589Y-114556966D02*
X162101649Y-114556966D01*
X161633025Y-114176401D02*
X162013589Y-114556966D01*
X161879106Y-117265580D02*
X159901389Y-119243297D01*
X159901389Y-119243297D02*
X157711900Y-119243297D01*
X162101649Y-114556966D02*
X162856813Y-115312130D01*
X162856813Y-116405612D02*
X161996845Y-117265580D01*
X157711900Y-119243297D02*
X156772899Y-120182298D01*
X156772899Y-120182298D02*
X156430000Y-120525197D01*
X162856813Y-115312130D02*
X162856813Y-116405612D01*
X161190316Y-114176401D02*
X161633025Y-114176401D01*
X145601250Y-103861250D02*
X145601250Y-102245196D01*
X145601250Y-102245196D02*
X145669370Y-102177076D01*
X132029833Y-103479808D02*
X133238517Y-102271124D01*
X135977174Y-101217729D02*
X137235458Y-101217729D01*
X137235458Y-101217729D02*
X137502167Y-100951020D01*
X152393577Y-122490239D02*
X137882874Y-122490239D01*
X134923779Y-102271124D02*
X135977174Y-101217729D01*
X134131044Y-118738409D02*
X134131044Y-111779002D01*
X153190000Y-122178749D02*
X152705067Y-122178749D01*
X132029833Y-109677791D02*
X132029833Y-103479808D01*
X137882874Y-122490239D02*
X134131044Y-118738409D01*
X134131044Y-111779002D02*
X132029833Y-109677791D01*
X133238517Y-102271124D02*
X134923779Y-102271124D01*
X152705067Y-122178749D02*
X152393577Y-122490239D01*
X161664091Y-113776401D02*
X162139845Y-114252155D01*
X162607101Y-117532899D02*
X162950000Y-117190000D01*
X160591892Y-119548108D02*
X162607101Y-117532899D01*
X163169244Y-115193494D02*
X163169244Y-116970756D01*
X159474251Y-119548108D02*
X160591892Y-119548108D01*
X161190316Y-113776401D02*
X161664091Y-113776401D01*
X162227905Y-114252155D02*
X163169244Y-115193494D01*
X162139845Y-114252155D02*
X162227905Y-114252155D01*
X163169244Y-116970756D02*
X162950000Y-117190000D01*
X158069461Y-120952898D02*
X159474251Y-119548108D01*
X144101250Y-103136640D02*
X143778481Y-102813871D01*
X144101250Y-103861250D02*
X144101250Y-103136640D01*
X154934369Y-114270989D02*
X154624470Y-113961090D01*
X157046451Y-113289562D02*
X156365473Y-113289562D01*
X155998535Y-113973809D02*
X155701355Y-114270989D01*
X157133290Y-113376401D02*
X157046451Y-113289562D01*
X156365473Y-113289562D02*
X155998535Y-113656500D01*
X158110316Y-113376401D02*
X157133290Y-113376401D01*
X155998535Y-113656500D02*
X155998535Y-113973809D01*
X155701355Y-114270989D02*
X154934369Y-114270989D01*
X153777101Y-122632899D02*
X154120000Y-122290000D01*
X131725022Y-109843956D02*
X133826233Y-111945167D01*
X131725022Y-103357144D02*
X131725022Y-109843956D01*
X137754078Y-122792510D02*
X153617490Y-122792510D01*
X133826233Y-118864665D02*
X137754078Y-122792510D01*
X133826233Y-111945167D02*
X133826233Y-118864665D01*
X134801115Y-101966313D02*
X133115853Y-101966313D01*
X138987190Y-99876988D02*
X138452120Y-100412058D01*
X135851970Y-100915458D02*
X134801115Y-101966313D01*
X137229064Y-100382058D02*
X136695664Y-100915458D01*
X138452120Y-100412058D02*
X137805270Y-100412058D01*
X136695664Y-100915458D02*
X135851970Y-100915458D01*
X133115853Y-101966313D02*
X131725022Y-103357144D01*
X139071797Y-99876988D02*
X138987190Y-99876988D01*
X153617490Y-122792510D02*
X153777101Y-122632899D01*
X137805270Y-100412058D02*
X137775270Y-100382058D01*
X137775270Y-100382058D02*
X137229064Y-100382058D01*
X157789981Y-121524399D02*
X157517876Y-121252294D01*
X158343782Y-121524399D02*
X157789981Y-121524399D01*
X162354161Y-113947344D02*
X163521502Y-115114685D01*
X158640962Y-121227219D02*
X158343782Y-121524399D01*
X161150870Y-119852919D02*
X159662903Y-119852919D01*
X163521502Y-115114685D02*
X163521502Y-117482287D01*
X159662903Y-119852919D02*
X158640962Y-120874860D01*
X161190316Y-113376401D02*
X161695158Y-113376401D01*
X158640962Y-120874860D02*
X158640962Y-121227219D01*
X161695158Y-113376401D02*
X162266101Y-113947344D01*
X157517876Y-121252294D02*
X157174977Y-120909395D01*
X162266101Y-113947344D02*
X162354161Y-113947344D01*
X163521502Y-117482287D02*
X161150870Y-119852919D01*
X145101250Y-103861250D02*
X145101250Y-102735347D01*
X145101250Y-102735347D02*
X144921484Y-102555581D01*
X133521422Y-118990921D02*
X133521422Y-112071423D01*
X137715295Y-99825697D02*
X138200228Y-99825697D01*
X137075370Y-99825697D02*
X137715295Y-99825697D01*
X135721132Y-100613187D02*
X136287880Y-100613187D01*
X134801869Y-101532450D02*
X135721132Y-100613187D01*
X133122241Y-101532450D02*
X134801869Y-101532450D01*
X155373528Y-122469951D02*
X154748698Y-123094781D01*
X133521422Y-112071423D02*
X131420211Y-109970212D01*
X137625282Y-123094781D02*
X133521422Y-118990921D01*
X154748698Y-123094781D02*
X137625282Y-123094781D01*
X131420211Y-103234480D02*
X133122241Y-101532450D01*
X131420211Y-109970212D02*
X131420211Y-103234480D01*
X136287880Y-100613187D02*
X137075370Y-99825697D01*
X159996167Y-121435096D02*
X163980756Y-117450507D01*
X163980756Y-117450507D02*
X163980756Y-114765689D01*
X163980756Y-114765689D02*
X163711422Y-114496355D01*
X159173336Y-121435096D02*
X159996167Y-121435096D01*
X144601250Y-103081169D02*
X144349983Y-102829902D01*
X144601250Y-103861250D02*
X144601250Y-103081169D01*
X144349983Y-102318892D02*
X144052978Y-102021887D01*
X144349983Y-102829902D02*
X144349983Y-102318892D01*
X162392357Y-113642533D02*
X162480417Y-113642533D01*
X163334239Y-114496355D02*
X163711422Y-114496355D01*
X161190316Y-112976401D02*
X161726225Y-112976401D01*
X162480417Y-113642533D02*
X163334239Y-114496355D01*
X161726225Y-112976401D02*
X162392357Y-113642533D01*
X156150119Y-112976401D02*
X155769932Y-113356588D01*
X155769932Y-113356588D02*
X155427033Y-113699487D01*
X158110316Y-112976401D02*
X156150119Y-112976401D01*
X147301250Y-106061250D02*
X148283654Y-106061250D01*
X148800702Y-106125958D02*
X149143601Y-106468857D01*
X148283654Y-106061250D02*
X148287122Y-106064718D01*
X148287122Y-106064718D02*
X148739462Y-106064718D01*
X148739462Y-106064718D02*
X148800702Y-106125958D01*
X161806679Y-112576401D02*
X162562545Y-113332267D01*
X163200456Y-113332267D02*
X163543355Y-113675166D01*
X161190316Y-112576401D02*
X161806679Y-112576401D01*
X162562545Y-113332267D02*
X163200456Y-113332267D01*
X147934285Y-104616885D02*
X149376172Y-104616885D01*
X149537753Y-104455304D02*
X150022686Y-104455304D01*
X147878650Y-104561250D02*
X147934285Y-104616885D01*
X149376172Y-104616885D02*
X149537753Y-104455304D01*
X147301250Y-104561250D02*
X147878650Y-104561250D01*
X151075042Y-110700306D02*
X151688757Y-110086591D01*
X151313033Y-107457839D02*
X151313033Y-106972906D01*
X151688757Y-110086591D02*
X151688757Y-108648330D01*
X151346978Y-107491784D02*
X151313033Y-107457839D01*
X151688757Y-108648330D02*
X151346978Y-108306551D01*
X151346978Y-108306551D02*
X151346978Y-107491784D01*
X163215067Y-112840000D02*
X163700000Y-112840000D01*
X161190316Y-112176401D02*
X161841468Y-112176401D01*
X162505067Y-112840000D02*
X163215067Y-112840000D01*
X161841468Y-112176401D02*
X162505067Y-112840000D01*
X153195082Y-114132103D02*
X152852183Y-113789204D01*
X157431496Y-114176401D02*
X157431496Y-114183288D01*
X157431496Y-114183288D02*
X157328662Y-114286122D01*
X157328662Y-114286122D02*
X156843729Y-114286122D01*
X153518593Y-114132103D02*
X153195082Y-114132103D01*
X154695919Y-115309429D02*
X153518593Y-114132103D01*
X157431496Y-114176401D02*
X156298468Y-115309429D01*
X156298468Y-115309429D02*
X154695919Y-115309429D01*
X158110316Y-114176401D02*
X157431496Y-114176401D01*
X147301250Y-105561250D02*
X148493410Y-105561250D01*
X148493410Y-105561250D02*
X148561444Y-105493216D01*
X161907485Y-111776401D02*
X162619582Y-112488498D01*
X162619582Y-112488498D02*
X163235678Y-112488498D01*
X161190316Y-111776401D02*
X161907485Y-111776401D01*
X163235678Y-112488498D02*
X163564649Y-112159527D01*
X163564649Y-112159527D02*
X163564649Y-111314898D01*
X163564649Y-111314898D02*
X163564649Y-110829965D01*
X148955464Y-104921696D02*
X149289758Y-105255990D01*
X148072926Y-105061250D02*
X148212480Y-104921696D01*
X149289758Y-105255990D02*
X149774691Y-105255990D01*
X147301250Y-105061250D02*
X148072926Y-105061250D01*
X148212480Y-104921696D02*
X148955464Y-104921696D01*
X151039941Y-109324307D02*
X151039941Y-108369537D01*
X151092987Y-109377353D02*
X151039941Y-109324307D01*
X151039941Y-108369537D02*
X150701465Y-108031061D01*
X151092987Y-109862286D02*
X151092987Y-109377353D01*
X150701465Y-108031061D02*
X150701465Y-107546128D01*
X162426401Y-111376401D02*
X162607101Y-111557101D01*
X162607101Y-111557101D02*
X162950000Y-111900000D01*
X161190316Y-111376401D02*
X162426401Y-111376401D01*
X155545971Y-114737928D02*
X156030904Y-114737928D01*
X157102223Y-113776401D02*
X156920195Y-113594373D01*
X156491728Y-113594373D02*
X156303346Y-113782755D01*
X156303346Y-113782755D02*
X156303346Y-114100065D01*
X156030904Y-114372506D02*
X156030904Y-114737928D01*
X153363520Y-113125025D02*
X154052969Y-113814474D01*
X156920195Y-113594373D02*
X156491728Y-113594373D01*
X154555485Y-114737928D02*
X155545971Y-114737928D01*
X154052969Y-113814474D02*
X154052969Y-114235412D01*
X158110316Y-113776401D02*
X157102223Y-113776401D01*
X156303346Y-114100065D02*
X156030904Y-114372506D01*
X154052969Y-114235412D02*
X154555485Y-114737928D01*
X160687600Y-103800000D02*
X161190000Y-103800000D01*
X154461478Y-119191619D02*
X155933855Y-117719242D01*
X149090100Y-118492145D02*
X149591562Y-118492145D01*
X143355086Y-116640338D02*
X144395013Y-117680265D01*
X158266268Y-117719242D02*
X160219833Y-115765677D01*
X160219833Y-104267767D02*
X160687600Y-103800000D01*
X143101250Y-112761250D02*
X143101250Y-113338651D01*
X147850828Y-117680265D02*
X148130878Y-117960316D01*
X153337005Y-119191619D02*
X154461478Y-119191619D01*
X146223511Y-118073504D02*
X146616750Y-117680265D01*
X153069864Y-118924478D02*
X153337005Y-119191619D01*
X149591562Y-118492145D02*
X150023895Y-118924478D01*
X148558271Y-117960316D02*
X149090100Y-118492145D01*
X148130878Y-117960316D02*
X148558271Y-117960316D01*
X144783251Y-117680265D02*
X145176489Y-118073504D01*
X144395013Y-117680265D02*
X144783251Y-117680265D01*
X146616750Y-117680265D02*
X147850828Y-117680265D01*
X143101250Y-113338651D02*
X143355086Y-113592487D01*
X143355086Y-113592487D02*
X143355086Y-116640338D01*
X145176489Y-118073504D02*
X146223511Y-118073504D01*
X160219833Y-115765677D02*
X160219833Y-104267767D01*
X155933855Y-117719242D02*
X158266268Y-117719242D01*
X150023895Y-118924478D02*
X153069864Y-118924478D01*
X147974351Y-117376313D02*
X148256082Y-117658045D01*
X145301693Y-117771233D02*
X146098306Y-117771233D01*
X153195068Y-118622207D02*
X153462209Y-118889348D01*
X143657357Y-113463691D02*
X143657357Y-116515134D01*
X149721270Y-118187334D02*
X150156143Y-118622207D01*
X146493227Y-117376313D02*
X147974351Y-117376313D01*
X159915022Y-115643014D02*
X159915022Y-104141869D01*
X153462209Y-118889348D02*
X154332682Y-118889348D01*
X143601250Y-113407584D02*
X143657357Y-113463691D01*
X148256082Y-117658045D02*
X148712658Y-117658045D01*
X160656891Y-103400000D02*
X160687600Y-103400000D01*
X159915022Y-104141869D02*
X160656891Y-103400000D01*
X154332682Y-118889348D02*
X155807599Y-117414431D01*
X144906773Y-117376313D02*
X145301693Y-117771233D01*
X148712658Y-117658045D02*
X149241947Y-118187334D01*
X144518536Y-117376313D02*
X144906773Y-117376313D01*
X143601250Y-112761250D02*
X143601250Y-113407584D01*
X158143605Y-117414431D02*
X159915022Y-115643014D01*
X150156143Y-118622207D02*
X153195068Y-118622207D01*
X143657357Y-116515134D02*
X144518536Y-117376313D01*
X160687600Y-103400000D02*
X161190000Y-103400000D01*
X146098306Y-117771233D02*
X146493227Y-117376313D01*
X155807599Y-117414431D02*
X158143605Y-117414431D01*
X149241947Y-118187334D02*
X149721270Y-118187334D01*
X164285567Y-105704590D02*
X164285567Y-117573170D01*
X164285567Y-117573170D02*
X159852140Y-122006597D01*
X150194744Y-120978884D02*
X139298792Y-120978884D01*
X150737795Y-120435833D02*
X150194744Y-120978884D01*
X161604977Y-103024000D02*
X164285567Y-105704590D01*
X135616978Y-114238089D02*
X135616978Y-113753156D01*
X159852140Y-122006597D02*
X157065578Y-122006597D01*
X152710985Y-120702974D02*
X152443845Y-120435833D01*
X161190316Y-103024000D02*
X161604977Y-103024000D01*
X135616978Y-117297070D02*
X135616978Y-114238089D01*
X157065578Y-122006597D02*
X155761955Y-120702974D01*
X155761955Y-120702974D02*
X152710985Y-120702974D01*
X152443845Y-120435833D02*
X150737795Y-120435833D01*
X139298792Y-120978884D02*
X135616978Y-117297070D01*
X139601250Y-113338650D02*
X139214983Y-113724917D01*
X139601250Y-112761250D02*
X139601250Y-113338650D01*
X139214983Y-113724917D02*
X138918068Y-113724917D01*
X156939322Y-122311408D02*
X155633159Y-121005245D01*
X150319948Y-121281155D02*
X138792811Y-121281155D01*
X152318641Y-120738104D02*
X150862999Y-120738104D01*
X136963996Y-119452340D02*
X136621097Y-119109441D01*
X152585780Y-121005244D02*
X152318641Y-120738104D01*
X155633159Y-121005245D02*
X152585780Y-121005244D01*
X159974803Y-122311408D02*
X156939322Y-122311408D01*
X164587838Y-117698374D02*
X159974803Y-122311408D01*
X161632452Y-102624000D02*
X164587838Y-105579386D01*
X138792811Y-121281155D02*
X136963996Y-119452340D01*
X161190316Y-102624000D02*
X161632452Y-102624000D01*
X164587838Y-105579386D02*
X164587838Y-117698374D01*
X150862999Y-120738104D02*
X150319948Y-121281155D01*
X138090746Y-116715813D02*
X138130000Y-116755067D01*
X138090746Y-113516154D02*
X138090746Y-116715813D01*
X138845650Y-112761250D02*
X138090746Y-113516154D01*
X139101250Y-112761250D02*
X138845650Y-112761250D01*
X138130000Y-116755067D02*
X138130000Y-117240000D01*
X152193437Y-121040375D02*
X150988203Y-121040375D01*
X137823850Y-110061250D02*
X138401250Y-110061250D01*
X150988203Y-121040375D02*
X150445152Y-121583426D01*
X135045477Y-118359641D02*
X135045477Y-112839623D01*
X138269262Y-121583426D02*
X135045477Y-118359641D01*
X152460577Y-121307516D02*
X152193437Y-121040375D01*
X155504363Y-121307516D02*
X152460577Y-121307516D01*
X160097466Y-122616219D02*
X156813066Y-122616219D01*
X161659927Y-102224000D02*
X164890109Y-105454182D01*
X161190316Y-102224000D02*
X161659927Y-102224000D01*
X135045477Y-112839623D02*
X137823850Y-110061250D01*
X164890109Y-105454182D02*
X164890109Y-117823578D01*
X156813066Y-122616219D02*
X155504363Y-121307516D01*
X164890109Y-117823578D02*
X160097466Y-122616219D01*
X150445152Y-121583426D02*
X138269262Y-121583426D01*
X155375567Y-121609787D02*
X152335372Y-121609786D01*
X138140466Y-121885697D02*
X134740666Y-118485897D01*
X165192380Y-105328978D02*
X165192380Y-117948782D01*
X134740666Y-112644434D02*
X137823850Y-109561250D01*
X165192380Y-117948782D02*
X165015312Y-118125849D01*
X150570356Y-121885697D02*
X138140466Y-121885697D01*
X161190316Y-101824000D02*
X161687402Y-101824000D01*
X152335372Y-121609786D02*
X152068233Y-121342646D01*
X160220129Y-122921030D02*
X156686810Y-122921030D01*
X165015312Y-118125849D02*
X160220129Y-122921030D01*
X161687402Y-101824000D02*
X165192380Y-105328978D01*
X137823850Y-109561250D02*
X138401250Y-109561250D01*
X152068233Y-121342646D02*
X151113407Y-121342646D01*
X134740666Y-118485897D02*
X134740666Y-112644434D01*
X156686810Y-122921030D02*
X155375567Y-121609787D01*
X151113407Y-121342646D02*
X150570356Y-121885697D01*
X153589381Y-106525900D02*
X153589381Y-105472234D01*
X154933454Y-104004581D02*
X155998701Y-102939334D01*
X153751967Y-110124834D02*
X153751967Y-106688486D01*
X147576250Y-112061250D02*
X148270934Y-112755934D01*
X153589381Y-105472234D02*
X153731326Y-105330289D01*
X153731326Y-105330289D02*
X153731326Y-104606645D01*
X156026993Y-102939334D02*
X156369892Y-102596435D01*
X148270934Y-112755934D02*
X151120867Y-112755934D01*
X153751967Y-106688486D02*
X153589381Y-106525900D01*
X153731326Y-104606645D02*
X154333390Y-104004581D01*
X154333390Y-104004581D02*
X154933454Y-104004581D01*
X151120867Y-112755934D02*
X153751967Y-110124834D01*
X155998701Y-102939334D02*
X156026993Y-102939334D01*
X147301250Y-112061250D02*
X147576250Y-112061250D01*
X162521757Y-100647656D02*
X162864656Y-100304757D01*
X161190316Y-101424000D02*
X161745413Y-101424000D01*
X161745413Y-101424000D02*
X162521757Y-100647656D01*
X153447156Y-106814742D02*
X153284570Y-106652156D01*
X154204594Y-103702310D02*
X154808251Y-103702310D01*
X148673167Y-112451124D02*
X150994611Y-112451123D01*
X147783293Y-111561250D02*
X148673167Y-112451124D01*
X150994611Y-112451123D02*
X153447156Y-109998578D01*
X153426515Y-104480389D02*
X154204594Y-103702310D01*
X155563838Y-102946723D02*
X155563838Y-102860856D01*
X155563838Y-102860856D02*
X155563838Y-102375923D01*
X147301250Y-111561250D02*
X147783293Y-111561250D01*
X153284570Y-106652156D02*
X153284570Y-105345978D01*
X153426515Y-105204033D02*
X153426515Y-104480389D01*
X153447156Y-109998578D02*
X153447156Y-106814742D01*
X153284570Y-105345978D02*
X153426515Y-105204033D01*
X154808251Y-103702310D02*
X155563838Y-102946723D01*
X162073412Y-99980781D02*
X162165072Y-99889121D01*
X162073412Y-100609137D02*
X162073412Y-99980781D01*
X161658549Y-101024000D02*
X162073412Y-100609137D01*
X161190316Y-101024000D02*
X161658549Y-101024000D01*
X162165072Y-99889121D02*
X162507971Y-99546222D01*
X154945195Y-102165380D02*
X155227392Y-101883183D01*
X155024769Y-102557974D02*
X154945195Y-102478400D01*
X153121704Y-104354133D02*
X154075798Y-103400039D01*
X154683046Y-103400039D02*
X155024769Y-103058317D01*
X153121704Y-105077777D02*
X153121704Y-104354133D01*
X153142345Y-109872322D02*
X153142345Y-106940998D01*
X148803861Y-112146312D02*
X150868355Y-112146312D01*
X153142345Y-106940998D02*
X152979759Y-106778412D01*
X152979759Y-105219722D02*
X153121704Y-105077777D01*
X152979759Y-106778412D02*
X152979759Y-105219722D01*
X155024769Y-103058317D02*
X155024769Y-102557974D01*
X155227392Y-101883183D02*
X155570291Y-101540284D01*
X147718799Y-111061250D02*
X148803861Y-112146312D01*
X147301250Y-111061250D02*
X147718799Y-111061250D01*
X150868355Y-112146312D02*
X153142345Y-109872322D01*
X154945195Y-102478400D02*
X154945195Y-102165380D01*
X154075798Y-103400039D02*
X154683046Y-103400039D01*
X161768601Y-99667927D02*
X161632194Y-99531520D01*
X161627482Y-100624000D02*
X161768601Y-100482881D01*
X161768601Y-100482881D02*
X161768601Y-99667927D01*
X161190316Y-100624000D02*
X161627482Y-100624000D01*
X153108742Y-98199602D02*
X152717333Y-97808193D01*
X157738051Y-100624000D02*
X156478860Y-99364809D01*
X152390146Y-100411024D02*
X152390146Y-100883731D01*
X152168689Y-97808193D02*
X151871509Y-98105373D01*
X158110316Y-100624000D02*
X157738051Y-100624000D01*
X156478860Y-99364809D02*
X155143743Y-99364809D01*
X155143743Y-99364809D02*
X153978536Y-98199602D01*
X153978536Y-98199602D02*
X153108742Y-98199602D01*
X151871509Y-99892387D02*
X152390146Y-100411024D01*
X152717333Y-97808193D02*
X152168689Y-97808193D01*
X151871509Y-98105373D02*
X151871509Y-99892387D01*
X143206961Y-102024196D02*
X143780791Y-101450367D01*
X143206961Y-103066049D02*
X143206961Y-102024196D01*
X143780791Y-101450367D02*
X145009210Y-101450367D01*
X149650544Y-101846399D02*
X150020181Y-101476762D01*
X143601250Y-103861250D02*
X143601250Y-103460338D01*
X145164399Y-101605556D02*
X146394399Y-101605556D01*
X150020181Y-101476762D02*
X150363080Y-101133863D01*
X146394399Y-101605556D02*
X146635242Y-101846399D01*
X146635242Y-101846399D02*
X149650544Y-101846399D01*
X145009210Y-101450367D02*
X145164399Y-101605556D01*
X143601250Y-103460338D02*
X143206961Y-103066049D01*
X142051875Y-98389833D02*
X142672203Y-99010161D01*
X136239852Y-98339762D02*
X138853318Y-98339762D01*
X144102986Y-99010161D02*
X144369695Y-98743452D01*
X142672203Y-99010161D02*
X144102986Y-99010161D01*
X138903389Y-98389833D02*
X142051875Y-98389833D01*
X138853318Y-98339762D02*
X138903389Y-98389833D01*
X135712876Y-98866738D02*
X136239852Y-98339762D01*
X154691629Y-99669620D02*
X153790573Y-98768564D01*
X158110316Y-101024000D02*
X157582934Y-101024000D01*
X153790573Y-98768564D02*
X153305640Y-98768564D01*
X157582934Y-101024000D02*
X156228554Y-99669620D01*
X156228554Y-99669620D02*
X154691629Y-99669620D01*
X137704621Y-104547538D02*
X137361722Y-104204639D01*
X138401250Y-104561250D02*
X137718333Y-104561250D01*
X137718333Y-104561250D02*
X137704621Y-104547538D01*
X145973102Y-117468962D02*
X146370562Y-117071502D01*
X148837862Y-117355774D02*
X149364610Y-117882523D01*
X159610211Y-115520350D02*
X159610211Y-103975613D01*
X160251502Y-103334322D02*
X160251502Y-102785678D01*
X144101250Y-115702104D02*
X143959628Y-115843726D01*
X159610211Y-103975613D02*
X160251502Y-103334322D01*
X146370562Y-117071502D02*
X148097015Y-117071502D01*
X158612400Y-101400000D02*
X158110000Y-101400000D01*
X153320272Y-118319936D02*
X153587413Y-118587077D01*
X154203886Y-118587077D02*
X155681343Y-117109620D01*
X145029437Y-117071502D02*
X145426897Y-117468962D01*
X150284939Y-118319936D02*
X153320272Y-118319936D01*
X144648514Y-117071502D02*
X145029437Y-117071502D01*
X155681343Y-117109620D02*
X158020941Y-117109620D01*
X148381286Y-117355774D02*
X148837862Y-117355774D01*
X158865824Y-101400000D02*
X158612400Y-101400000D01*
X145426897Y-117468962D02*
X145973102Y-117468962D01*
X143959628Y-116382616D02*
X144648514Y-117071502D01*
X143959628Y-115843726D02*
X143959628Y-116382616D01*
X149364610Y-117882523D02*
X149847526Y-117882523D01*
X144101250Y-112761250D02*
X144101250Y-115702104D01*
X149847526Y-117882523D02*
X150284939Y-118319936D01*
X158020941Y-117109620D02*
X159610211Y-115520350D01*
X153587413Y-118587077D02*
X154203886Y-118587077D01*
X148097015Y-117071502D02*
X148381286Y-117355774D01*
X160251502Y-102785678D02*
X158865824Y-101400000D01*
X135505272Y-102924117D02*
X135698810Y-102730579D01*
X133540488Y-110326312D02*
X132639455Y-109425279D01*
X137545639Y-109061250D02*
X136280577Y-110326312D01*
X132639455Y-103725136D02*
X133440474Y-102924117D01*
X136280577Y-110326312D02*
X133540488Y-110326312D01*
X133440474Y-102924117D02*
X135505272Y-102924117D01*
X132639455Y-109425279D02*
X132639455Y-103725136D01*
X138401250Y-109061250D02*
X137545639Y-109061250D01*
X145416937Y-99312432D02*
X145901870Y-99312432D01*
X134986112Y-99433785D02*
X135471045Y-99433785D01*
X136743293Y-98644573D02*
X138727062Y-98644573D01*
X141925619Y-98694644D02*
X142543407Y-99312432D01*
X135471045Y-99433785D02*
X135555123Y-99517863D01*
X135555123Y-99517863D02*
X135870003Y-99517863D01*
X135870003Y-99517863D02*
X136743293Y-98644573D01*
X138727062Y-98644573D02*
X138777133Y-98694644D01*
X138777133Y-98694644D02*
X141925619Y-98694644D01*
X142543407Y-99312432D02*
X145416937Y-99312432D01*
X154196301Y-99670000D02*
X153544933Y-99670000D01*
X157531399Y-101403531D02*
X156102299Y-99974431D01*
X157531399Y-101635918D02*
X157531399Y-101403531D01*
X158110316Y-101824000D02*
X157719482Y-101824000D01*
X154500732Y-99974431D02*
X154196301Y-99670000D01*
X157719482Y-101824000D02*
X157531399Y-101635918D01*
X156102299Y-99974431D02*
X154500732Y-99974431D01*
X153544933Y-99670000D02*
X153060000Y-99670000D01*
X132944266Y-103847800D02*
X133278987Y-103513079D01*
X133590000Y-109260000D02*
X132944266Y-108614266D01*
X134920550Y-103513079D02*
X135405483Y-103513079D01*
X133278987Y-103513079D02*
X134920550Y-103513079D01*
X132944266Y-108614266D02*
X132944266Y-103847800D01*
X144457127Y-98134563D02*
X144942060Y-98134563D01*
X144136519Y-98134563D02*
X144457127Y-98134563D01*
X142800999Y-98707890D02*
X143563192Y-98707890D01*
X138979574Y-98034951D02*
X139029645Y-98085022D01*
X142178131Y-98085022D02*
X142800999Y-98707890D01*
X139029645Y-98085022D02*
X142178131Y-98085022D01*
X135423693Y-98034951D02*
X138979574Y-98034951D01*
X134852325Y-98606319D02*
X135423693Y-98034951D01*
X143563192Y-98707890D02*
X144136519Y-98134563D01*
X154334195Y-100238961D02*
X152649149Y-100238961D01*
X157028580Y-101331781D02*
X155976041Y-100279242D01*
X152443011Y-98864628D02*
X152443011Y-98379695D01*
X158110316Y-102224000D02*
X157692007Y-102224000D01*
X157028580Y-101560573D02*
X157028580Y-101331781D01*
X152224642Y-99082997D02*
X152443011Y-98864628D01*
X154374476Y-100279242D02*
X154334195Y-100238961D01*
X152649149Y-100238961D02*
X152224642Y-99814454D01*
X155976041Y-100279242D02*
X154374476Y-100279242D01*
X157692007Y-102224000D02*
X157028580Y-101560573D01*
X152224642Y-99814454D02*
X152224642Y-99082997D01*
X138401250Y-108561250D02*
X137314572Y-108561250D01*
X137314572Y-108561250D02*
X135854321Y-110021501D01*
X134055679Y-110021501D02*
X133590000Y-109555822D01*
X133590000Y-109555822D02*
X133590000Y-109260000D01*
X135854321Y-110021501D02*
X134055679Y-110021501D01*
X133590000Y-109260000D02*
X133590000Y-109270000D01*
X133590000Y-109270000D02*
X133460000Y-109400000D01*
X138401250Y-106561250D02*
X137631250Y-106561250D01*
X137631250Y-106561250D02*
X136290000Y-105220000D01*
X136290000Y-105220000D02*
X134155397Y-105220000D01*
X134155397Y-105220000D02*
X133524001Y-104588604D01*
X133524001Y-104588604D02*
X133524001Y-104103671D01*
X133921007Y-99549837D02*
X133436074Y-99549837D01*
X133980153Y-99549837D02*
X133921007Y-99549837D01*
X135990288Y-100008645D02*
X134438961Y-100008645D01*
X134438961Y-100008645D02*
X133980153Y-99549837D01*
X137049549Y-98949384D02*
X135990288Y-100008645D01*
X138652098Y-99000676D02*
X138600806Y-98949384D01*
X138600806Y-98949384D02*
X137049549Y-98949384D01*
X142156362Y-99733638D02*
X141423400Y-99000676D01*
X141423400Y-99000676D02*
X138652098Y-99000676D01*
X156504046Y-101463514D02*
X156504046Y-101238314D01*
X155849787Y-100584053D02*
X153446261Y-100584053D01*
X158110316Y-102624000D02*
X157664532Y-102624000D01*
X157664532Y-102624000D02*
X156504046Y-101463514D01*
X156504046Y-101238314D02*
X155849787Y-100584053D01*
X153446261Y-100584053D02*
X153222374Y-100807940D01*
X137486198Y-105561250D02*
X136520408Y-104595458D01*
X134923975Y-104082059D02*
X134842456Y-104163578D01*
X134842456Y-104163578D02*
X134357523Y-104163578D01*
X138401250Y-105561250D02*
X137486198Y-105561250D01*
X136520408Y-104595458D02*
X136155324Y-104595458D01*
X136155324Y-104595458D02*
X135641925Y-104082059D01*
X135641925Y-104082059D02*
X134923975Y-104082059D01*
X134154933Y-100460000D02*
X133670000Y-100460000D01*
X134304017Y-100310916D02*
X134154933Y-100460000D01*
X137215805Y-99254195D02*
X136159084Y-100310916D01*
X140541217Y-99305487D02*
X138525842Y-99305487D01*
X138525842Y-99305487D02*
X138474550Y-99254195D01*
X138474550Y-99254195D02*
X137215805Y-99254195D01*
X136159084Y-100310916D02*
X134304017Y-100310916D01*
X141603856Y-100368126D02*
X140541217Y-99305487D01*
X153983515Y-100888864D02*
X151791627Y-103080752D01*
X158110316Y-103024000D02*
X157637057Y-103024000D01*
X157637057Y-103024000D02*
X156186764Y-101573707D01*
X151791627Y-103080752D02*
X151745554Y-103080752D01*
X151745554Y-103080752D02*
X151402655Y-103423651D01*
X156186764Y-101573707D02*
X156186764Y-101352099D01*
X155723531Y-100888864D02*
X153983515Y-100888864D01*
X156186764Y-101352099D02*
X155723531Y-100888864D01*
X153894192Y-105598490D02*
X153894192Y-106399644D01*
X158110316Y-103424000D02*
X155941511Y-103424000D01*
X155941511Y-103424000D02*
X155058659Y-104306852D01*
X155058659Y-104306852D02*
X154462186Y-104306852D01*
X154462186Y-104306852D02*
X154036137Y-104732901D01*
X148543504Y-116574165D02*
X148720571Y-116751232D01*
X151247123Y-113060745D02*
X150779255Y-113060745D01*
X154056778Y-110251090D02*
X151247123Y-113060745D01*
X154036137Y-104732901D02*
X154036137Y-105456545D01*
X154036137Y-105456545D02*
X153894192Y-105598490D01*
X154056778Y-106562230D02*
X154056778Y-110251090D01*
X153894192Y-106399644D02*
X154056778Y-106562230D01*
X148543504Y-115296496D02*
X148543504Y-116574165D01*
X150779255Y-113060745D02*
X148543504Y-115296496D01*
X149088269Y-116751232D02*
X149609938Y-117272901D01*
X148720571Y-116751232D02*
X149088269Y-116751232D01*
X149609938Y-117272901D02*
X150148511Y-117272901D01*
X150148511Y-117272901D02*
X150324313Y-117448703D01*
X150324313Y-117448703D02*
X150809246Y-117448703D01*
X140601250Y-112761250D02*
X140601250Y-113338650D01*
X148091945Y-119165258D02*
X148178239Y-119078964D01*
X138700368Y-115239532D02*
X138700368Y-116208326D01*
X148178239Y-119078964D02*
X148521138Y-118736065D01*
X138700368Y-116208326D02*
X141657300Y-119165258D01*
X141657300Y-119165258D02*
X148091945Y-119165258D01*
X140601250Y-113338650D02*
X138700368Y-115239532D01*
X149331726Y-116448961D02*
X149790144Y-116907379D01*
X149790144Y-116907379D02*
X150634013Y-116907379D01*
X154199003Y-106273388D02*
X154361589Y-106435974D01*
X155968985Y-103824000D02*
X155183862Y-104609123D01*
X153579638Y-117680264D02*
X153740654Y-117519248D01*
X155183862Y-104609123D02*
X154590982Y-104609123D01*
X151373379Y-113365556D02*
X150941504Y-113365556D01*
X158110316Y-103824000D02*
X155968985Y-103824000D01*
X154340948Y-105582801D02*
X154199003Y-105724746D01*
X150941504Y-113365556D02*
X148845775Y-115461285D01*
X148845775Y-116448961D02*
X149331726Y-116448961D01*
X150634013Y-116907379D02*
X150696801Y-116844591D01*
X154361589Y-106435974D02*
X154361589Y-110377346D01*
X154361589Y-110377346D02*
X151373379Y-113365556D01*
X154340948Y-104859157D02*
X154340948Y-105582801D01*
X151894959Y-117680264D02*
X153579638Y-117680264D01*
X150696801Y-116844591D02*
X151059286Y-116844591D01*
X154199003Y-105724746D02*
X154199003Y-106273388D01*
X148845775Y-115461285D02*
X148845775Y-116448961D01*
X151059286Y-116844591D02*
X151894959Y-117680264D01*
X154590982Y-104609123D02*
X154340948Y-104859157D01*
X141528504Y-119467529D02*
X148916810Y-119467529D01*
X140101250Y-112761250D02*
X140101250Y-113387557D01*
X138395557Y-115093250D02*
X138395557Y-116334582D01*
X140101250Y-113387557D02*
X138395557Y-115093250D01*
X148977794Y-119406545D02*
X149320693Y-119063646D01*
X148916810Y-119467529D02*
X148977794Y-119406545D01*
X138395557Y-116334582D02*
X141528504Y-119467529D01*
X155996460Y-104224000D02*
X155042357Y-105178103D01*
X158110316Y-104224000D02*
X155996460Y-104224000D01*
X155042357Y-105178103D02*
X154910076Y-105178103D01*
X149693907Y-100148076D02*
X149693907Y-99583907D01*
X149693907Y-99583907D02*
X147110000Y-97000000D01*
X147110000Y-97000000D02*
X146850000Y-97000000D01*
X141601250Y-103861250D02*
X141601250Y-101905639D01*
X147173788Y-99624063D02*
X147717399Y-99624063D01*
X149351008Y-100490975D02*
X149693907Y-100148076D01*
X143275766Y-100231123D02*
X146566728Y-100231123D01*
X147717399Y-99624063D02*
X148584311Y-100490975D01*
X146566728Y-100231123D02*
X147173788Y-99624063D01*
X141601250Y-101905639D02*
X143275766Y-100231123D01*
X148584311Y-100490975D02*
X149351008Y-100490975D01*
X158110316Y-104624000D02*
X158067354Y-104581038D01*
X158067354Y-104581038D02*
X156066897Y-104581038D01*
X155479038Y-105451206D02*
X154928290Y-106001954D01*
X155479038Y-105168897D02*
X155479038Y-105451206D01*
X154928290Y-106001954D02*
X154770014Y-106001954D01*
X156066897Y-104581038D02*
X155479038Y-105168897D01*
X141101250Y-103861250D02*
X141101250Y-101974572D01*
X146476784Y-99890000D02*
X146740000Y-99626784D01*
X141101250Y-101974572D02*
X143185822Y-99890000D01*
X143185822Y-99890000D02*
X146476784Y-99890000D01*
X145302400Y-97000000D02*
X144700000Y-97000000D01*
X146740000Y-98437600D02*
X145302400Y-97000000D01*
X146740000Y-99626784D02*
X146740000Y-98437600D01*
X146740000Y-99626784D02*
X147270055Y-99096729D01*
X147270055Y-99096729D02*
X148157614Y-99096729D01*
X148157614Y-99096729D02*
X147676729Y-99096729D01*
X148157614Y-99096729D02*
X148157614Y-99128316D01*
X148157614Y-99128316D02*
X148510239Y-99480941D01*
X148510239Y-99480941D02*
X148853138Y-99823840D01*
X157607600Y-107400000D02*
X157574250Y-107433350D01*
X157574250Y-107433350D02*
X156387940Y-107433350D01*
X158110000Y-107400000D02*
X157607600Y-107400000D01*
X158110000Y-107800000D02*
X157060000Y-107800000D01*
X157060000Y-107800000D02*
X157050000Y-107790000D01*
X156400000Y-108200000D02*
X158110000Y-108200000D01*
X158110000Y-108600000D02*
X157050000Y-108600000D01*
X156420000Y-109010000D02*
X158100000Y-109010000D01*
X158100000Y-109010000D02*
X158110000Y-109000000D01*
X158110000Y-109400000D02*
X157060000Y-109400000D01*
X157060000Y-109400000D02*
X157050000Y-109410000D01*
X158110316Y-109376401D02*
X158083281Y-109403436D01*
X142597339Y-103279939D02*
X142597339Y-101771684D01*
X142601250Y-103861250D02*
X142601250Y-103283850D01*
X147288583Y-100970096D02*
X147773516Y-100970096D01*
X142601250Y-103283850D02*
X142597339Y-103279939D01*
X147159232Y-100840745D02*
X147288583Y-100970096D01*
X143528278Y-100840745D02*
X147159232Y-100840745D01*
X142597339Y-101771684D02*
X143528278Y-100840745D01*
X151918480Y-108032229D02*
X151918480Y-105497526D01*
X151918480Y-105497526D02*
X151775805Y-105354851D01*
X158110316Y-111376401D02*
X157094370Y-111376401D01*
X157042388Y-111324419D02*
X156699489Y-110981520D01*
X157094370Y-111376401D02*
X157042388Y-111324419D01*
X142101250Y-103861250D02*
X142101250Y-101836706D01*
X143402022Y-100535934D02*
X147110458Y-100535934D01*
X142101250Y-101836706D02*
X143402022Y-100535934D01*
X147110458Y-100535934D02*
X147449225Y-100197167D01*
X152260258Y-108806156D02*
X152509632Y-108556782D01*
X152370137Y-104785277D02*
X152245373Y-104660513D01*
X152509632Y-107170419D02*
X152370137Y-107030924D01*
X152370137Y-107030924D02*
X152370137Y-104785277D01*
X152509632Y-108556782D02*
X152509632Y-107170419D01*
X158110316Y-111776401D02*
X156391692Y-111776401D01*
X156391692Y-111776401D02*
X156141211Y-111525920D01*
X156141211Y-111525920D02*
X155798312Y-111183021D01*
X157469320Y-114576401D02*
X156431481Y-115614240D01*
X156431481Y-115614240D02*
X154569663Y-115614240D01*
X154569663Y-115614240D02*
X153479318Y-114523895D01*
X153479318Y-114523895D02*
X152419135Y-114523895D01*
X158110316Y-114576401D02*
X157469320Y-114576401D01*
X152419135Y-114523895D02*
X151934202Y-114523895D01*
X148223772Y-107448584D02*
X148469298Y-107448584D01*
X147301250Y-107061250D02*
X147836438Y-107061250D01*
X147836438Y-107061250D02*
X148223772Y-107448584D01*
X157720486Y-114976402D02*
X156777837Y-115919051D01*
X158110316Y-114976401D02*
X157720486Y-114976402D01*
X156777837Y-115919051D02*
X154066222Y-115919051D01*
X153896115Y-115748944D02*
X153553216Y-115406045D01*
X154066222Y-115919051D02*
X153896115Y-115748944D01*
X147301250Y-106561250D02*
X148182262Y-106561250D01*
X148182262Y-106561250D02*
X148256721Y-106635709D01*
X146101250Y-114641250D02*
X147027101Y-115567101D01*
X147027101Y-115807101D02*
X147370000Y-116150000D01*
X147027101Y-115567101D02*
X147027101Y-115807101D01*
X149414755Y-116089981D02*
X149414755Y-115879981D01*
X150508809Y-116605108D02*
X149929882Y-116605108D01*
X150571597Y-116542320D02*
X150508809Y-116605108D01*
X152030163Y-117377993D02*
X151194490Y-116542320D01*
X153568734Y-116480661D02*
X152671402Y-117377993D01*
X156647295Y-116480661D02*
X153568734Y-116480661D01*
X158110316Y-115376401D02*
X157751555Y-115376401D01*
X152671402Y-117377993D02*
X152030163Y-117377993D01*
X157751555Y-115376401D02*
X156647295Y-116480661D01*
X151194490Y-116542320D02*
X150571597Y-116542320D01*
X149929882Y-116605108D02*
X149414755Y-116089981D01*
X146101250Y-112761250D02*
X146101250Y-114641250D01*
D33*
X158110000Y-105400000D02*
X157368543Y-105400000D01*
X158110000Y-105000000D02*
X157397795Y-105000000D01*
X157397795Y-105000000D02*
X157183169Y-105214626D01*
X157368543Y-105400000D02*
X157183169Y-105214626D01*
D32*
X145600000Y-91450000D02*
X145600000Y-92402400D01*
X145600000Y-92402400D02*
X145362400Y-92640000D01*
X145362400Y-92640000D02*
X145010000Y-92640000D01*
D33*
X143027415Y-116300785D02*
X143027415Y-113815615D01*
X142728200Y-116600000D02*
X143027415Y-116300785D01*
X142795339Y-116667139D02*
X142795339Y-116742423D01*
X143027415Y-113815615D02*
X142601250Y-113389450D01*
X142601250Y-113389450D02*
X142601250Y-112761250D01*
X142728200Y-116600000D02*
X142795339Y-116667139D01*
X159740000Y-95750000D02*
X159740000Y-96190000D01*
X159740000Y-96190000D02*
X160890000Y-97340000D01*
X160890000Y-97340000D02*
X161530000Y-97340000D01*
X159647091Y-95750000D02*
X159740000Y-95750000D01*
X156483200Y-94500000D02*
X158397091Y-94500000D01*
X158397091Y-94500000D02*
X159647091Y-95750000D01*
X163780000Y-101640000D02*
X163780000Y-103100000D01*
X163780000Y-103100000D02*
X163790000Y-103110000D01*
D32*
X148240000Y-103407400D02*
X148157400Y-103490000D01*
X148240000Y-103407400D02*
X148670000Y-102977400D01*
X147685899Y-103961501D02*
X148157400Y-103490000D01*
D33*
X142150000Y-116600000D02*
X142728200Y-116600000D01*
X132840000Y-119340000D02*
X132343200Y-118843200D01*
X132343200Y-118843200D02*
X132180000Y-118843200D01*
X132180000Y-117640000D02*
X132180000Y-118843200D01*
X132180000Y-118843200D02*
X131683200Y-119340000D01*
X131683200Y-119340000D02*
X131300000Y-119340000D01*
X138920000Y-102650000D02*
X138390000Y-103180000D01*
X138920000Y-102240000D02*
X138920000Y-102650000D01*
D32*
X149552187Y-109772813D02*
X149552187Y-109792026D01*
X149552187Y-109792026D02*
X149385597Y-109958616D01*
X149385597Y-109958616D02*
X149385597Y-109971397D01*
X148670000Y-102977400D02*
X148670000Y-102450000D01*
X146903650Y-103861250D02*
X147003901Y-103961501D01*
X147003901Y-103961501D02*
X147685899Y-103961501D01*
X146601250Y-103861250D02*
X146903650Y-103861250D01*
X137690000Y-92157600D02*
X137507600Y-92157600D01*
X137507600Y-92157600D02*
X137160000Y-91810000D01*
X137690000Y-92157600D02*
X137730000Y-92197600D01*
X137730000Y-92197600D02*
X137730000Y-93230000D01*
X137000000Y-95039240D02*
X137000000Y-94230000D01*
X137000000Y-94230000D02*
X136937600Y-94167600D01*
X136937600Y-94167600D02*
X136937600Y-93797400D01*
X137505000Y-93230000D02*
X137730000Y-93230000D01*
X136937600Y-93797400D02*
X137505000Y-93230000D01*
X162100000Y-106990000D02*
X162350000Y-106990000D01*
X162350000Y-106990000D02*
X162740000Y-106600000D01*
X162100000Y-106990000D02*
X162280000Y-106990000D01*
X162280000Y-106990000D02*
X162700000Y-107410000D01*
X162110000Y-107790000D02*
X162320000Y-107790000D01*
X162320000Y-107790000D02*
X162700000Y-107410000D01*
X162110000Y-107790000D02*
X162270000Y-107790000D01*
X162270000Y-107790000D02*
X162690000Y-108210000D01*
X162080000Y-108600000D02*
X162300000Y-108600000D01*
X162300000Y-108600000D02*
X162690000Y-108210000D01*
X162080000Y-108600000D02*
X162320000Y-108600000D01*
X162320000Y-108600000D02*
X162690000Y-108970000D01*
X162690000Y-108970000D02*
X162530000Y-108970000D01*
X162530000Y-108970000D02*
X162110000Y-109390000D01*
X162690000Y-108210000D02*
X162690000Y-108970000D01*
X162700000Y-107410000D02*
X162700000Y-108200000D01*
X162700000Y-108200000D02*
X162690000Y-108210000D01*
X162740000Y-106600000D02*
X162740000Y-107370000D01*
X162740000Y-107370000D02*
X162700000Y-107410000D01*
X162740000Y-106600000D02*
X161190000Y-106600000D01*
X161190000Y-107000000D02*
X162090000Y-107000000D01*
X162090000Y-107000000D02*
X162100000Y-106990000D01*
X162700000Y-107410000D02*
X161200000Y-107410000D01*
X161200000Y-107410000D02*
X161190000Y-107400000D01*
X161190000Y-107800000D02*
X162100000Y-107800000D01*
X162100000Y-107800000D02*
X162110000Y-107790000D01*
X162690000Y-108210000D02*
X161200000Y-108210000D01*
X161200000Y-108210000D02*
X161190000Y-108200000D01*
X161190000Y-108600000D02*
X162080000Y-108600000D01*
X162690000Y-108970000D02*
X161220000Y-108970000D01*
X161220000Y-108970000D02*
X161190000Y-109000000D01*
X161190000Y-109400000D02*
X162100000Y-109400000D01*
X162100000Y-109400000D02*
X162110000Y-109390000D01*
D33*
X159740000Y-95750000D02*
X159650000Y-95750000D01*
X159650000Y-95750000D02*
X159370000Y-96030000D01*
X156860000Y-92825000D02*
X156860000Y-94123200D01*
X156860000Y-94123200D02*
X156483200Y-94500000D01*
X156483200Y-94500000D02*
X155750000Y-94500000D01*
X155870000Y-92060000D02*
X156095000Y-92060000D01*
X156095000Y-92060000D02*
X156860000Y-92825000D01*
D32*
X141200000Y-90889240D02*
X139560760Y-90889240D01*
X139560760Y-90889240D02*
X139000000Y-91450000D01*
X139000000Y-91450000D02*
X138397600Y-91450000D01*
X138397600Y-91450000D02*
X137690000Y-92157600D01*
X150200000Y-109125000D02*
X150200000Y-108900000D01*
X149552187Y-109772813D02*
X150200000Y-109125000D01*
X147301250Y-109561250D02*
X147987842Y-109561250D01*
X147987842Y-109561250D02*
X148199404Y-109772813D01*
X148199404Y-109772813D02*
X149552187Y-109772813D01*
X134010000Y-106120000D02*
X135660000Y-106120000D01*
X135660000Y-106120000D02*
X135670000Y-106110000D01*
X135670000Y-106110000D02*
X136197400Y-106110000D01*
X137823850Y-107061250D02*
X138401250Y-107061250D01*
X136197400Y-106110000D02*
X137148650Y-107061250D01*
X137148650Y-107061250D02*
X137823850Y-107061250D01*
X139601250Y-103861250D02*
X139601250Y-103271250D01*
X139601250Y-103271250D02*
X138920000Y-102590000D01*
X138920000Y-102590000D02*
X138920000Y-102240000D01*
D33*
X142150000Y-114700000D02*
X142150000Y-112810000D01*
X142150000Y-112810000D02*
X142101250Y-112761250D01*
X140167141Y-115688214D02*
X141386786Y-115688214D01*
X141386786Y-115688214D02*
X142150000Y-114925000D01*
X142150000Y-114925000D02*
X142150000Y-114700000D01*
D32*
X134010000Y-108020000D02*
X134010000Y-108245000D01*
X134715000Y-108950000D02*
X136300000Y-108950000D01*
X134010000Y-108245000D02*
X134715000Y-108950000D01*
X137823850Y-108061250D02*
X138401250Y-108061250D01*
X136300000Y-108950000D02*
X137188750Y-108061250D01*
X137188750Y-108061250D02*
X137823850Y-108061250D01*
D33*
X157950000Y-93550000D02*
X159700000Y-95300000D01*
X164062899Y-98957101D02*
X163720000Y-99300000D01*
X159700000Y-95300000D02*
X163460000Y-95300000D01*
X163460000Y-95300000D02*
X165000000Y-96840000D01*
X165000000Y-98020000D02*
X164062899Y-98957101D01*
X165000000Y-96840000D02*
X165000000Y-98020000D01*
X137735925Y-103229027D02*
X137250992Y-103229027D01*
X137772400Y-103265502D02*
X137735925Y-103229027D01*
X137772400Y-103300000D02*
X137772400Y-103265502D01*
X151040000Y-100850000D02*
X151040000Y-101790597D01*
X150690000Y-100500000D02*
X151040000Y-100850000D01*
X150690000Y-98376604D02*
X150690000Y-100500000D01*
X150070000Y-97756604D02*
X150690000Y-98376604D01*
X150070000Y-91578020D02*
X150070000Y-97756604D01*
X150548020Y-91100000D02*
X150070000Y-91578020D01*
X151150000Y-91100000D02*
X150548020Y-91100000D01*
X149128113Y-103702484D02*
X148785214Y-104045383D01*
X151040000Y-101790597D02*
X149128113Y-103702484D01*
X131170000Y-99310000D02*
X131170000Y-100566586D01*
X131170000Y-100566586D02*
X131090001Y-100646585D01*
X131720000Y-97460000D02*
X131720000Y-98760000D01*
X131720000Y-98760000D02*
X131170000Y-99310000D01*
X132620000Y-115530000D02*
X132620000Y-114080000D01*
X132620000Y-114080000D02*
X132180000Y-113640000D01*
X131090001Y-107479999D02*
X131090001Y-100646585D01*
X130790000Y-107780000D02*
X131090001Y-107479999D01*
D32*
X137772400Y-103300000D02*
X137772400Y-102767400D01*
X137772400Y-103408224D02*
X137772400Y-103300000D01*
X137245000Y-102240000D02*
X137020000Y-102240000D01*
X137772400Y-102767400D02*
X137245000Y-102240000D01*
X138225426Y-103861250D02*
X137772400Y-103408224D01*
X139101250Y-103861250D02*
X138225426Y-103861250D01*
D33*
X149169512Y-111269983D02*
X149730017Y-111269983D01*
X149730017Y-111269983D02*
X150200000Y-110800000D01*
D32*
X148062749Y-110061250D02*
X148720000Y-110718501D01*
X148720000Y-110718501D02*
X148801499Y-110800000D01*
D33*
X147320000Y-103390000D02*
X147320000Y-103000000D01*
X147320000Y-103000000D02*
X146770000Y-102450000D01*
X144700000Y-94800000D02*
X143070000Y-94800000D01*
X143070000Y-94800000D02*
X143000000Y-94870000D01*
X146850000Y-94800000D02*
X144700000Y-94800000D01*
X147420000Y-92228820D02*
X147420000Y-93426800D01*
X147420000Y-93426800D02*
X146850000Y-93996800D01*
X146850000Y-93996800D02*
X146850000Y-94800000D01*
D34*
X151150000Y-91100000D02*
X149000000Y-91100000D01*
X153300000Y-91100000D02*
X151150000Y-91100000D01*
X154003580Y-91100000D02*
X153300000Y-91100000D01*
X157770000Y-92060000D02*
X157545000Y-92060000D01*
X157545000Y-92060000D02*
X156585000Y-91100000D01*
X156585000Y-91100000D02*
X154003580Y-91100000D01*
X157950000Y-93550000D02*
X157950000Y-92240000D01*
X157950000Y-92240000D02*
X157770000Y-92060000D01*
D32*
X148548820Y-91100000D02*
X149000000Y-91100000D01*
D33*
X158110000Y-105800000D02*
X159090000Y-105800000D01*
X158663200Y-106200000D02*
X159063200Y-105800000D01*
X159090000Y-105800000D02*
X159200000Y-105800000D01*
X158110000Y-106200000D02*
X158663200Y-106200000D01*
X159063200Y-105800000D02*
X159090000Y-105800000D01*
X159200000Y-105800000D02*
X159280000Y-105720000D01*
X159280000Y-105720000D02*
X159280000Y-103460000D01*
X159280000Y-103460000D02*
X159680000Y-103060000D01*
X157770000Y-92060000D02*
X158000000Y-92060000D01*
X158000000Y-92060000D02*
X159160000Y-90900000D01*
D32*
X148548820Y-91100000D02*
X147420000Y-92228820D01*
X153550000Y-91350000D02*
X153300000Y-91100000D01*
X134330000Y-109450000D02*
X134330000Y-108340000D01*
X134330000Y-108340000D02*
X134010000Y-108020000D01*
X147301250Y-110061250D02*
X148062749Y-110061250D01*
X148801499Y-110800000D02*
X149672600Y-110800000D01*
X149672600Y-110800000D02*
X150200000Y-110800000D01*
X146275100Y-103110000D02*
X146637400Y-103110000D01*
X146637400Y-103110000D02*
X146770000Y-102977400D01*
X146770000Y-102977400D02*
X146770000Y-102450000D01*
X146101250Y-103861250D02*
X146101250Y-103283850D01*
X146101250Y-103283850D02*
X146275100Y-103110000D01*
X137823850Y-107561250D02*
X138401250Y-107561250D01*
X137754889Y-107630211D02*
X137823850Y-107561250D01*
X136577189Y-107630211D02*
X137754889Y-107630211D01*
X136197400Y-108010000D02*
X136577189Y-107630211D01*
X135670000Y-108010000D02*
X136197400Y-108010000D01*
X138401250Y-106061250D02*
X137558724Y-106061250D01*
X135615532Y-104897729D02*
X135368823Y-104651020D01*
X136395204Y-104897729D02*
X135615532Y-104897729D01*
X137558724Y-106061250D02*
X136395204Y-104897729D01*
D33*
X162630210Y-98629790D02*
X160022990Y-98629790D01*
X160022990Y-98629790D02*
X158733200Y-97340000D01*
X158733200Y-97340000D02*
X157530000Y-97340000D01*
X163850000Y-97370000D02*
X163088001Y-98131999D01*
X163088001Y-98131999D02*
X163088001Y-98171999D01*
X163088001Y-98171999D02*
X162630210Y-98629790D01*
X155016800Y-93550000D02*
X155750000Y-93550000D01*
X154906902Y-95340102D02*
X154906902Y-93659898D01*
X154906902Y-93659898D02*
X155016800Y-93550000D01*
X155016800Y-95450000D02*
X154906902Y-95340102D01*
X155750000Y-95450000D02*
X155016800Y-95450000D01*
X155720000Y-96880000D02*
X155720000Y-95480000D01*
X155720000Y-95480000D02*
X155750000Y-95450000D01*
X157530000Y-97340000D02*
X156180000Y-97340000D01*
X156180000Y-97340000D02*
X155720000Y-96880000D01*
D32*
X140820000Y-96590000D02*
X140190000Y-96590000D01*
X140190000Y-96590000D02*
X139070000Y-95470000D01*
X139070000Y-95470000D02*
X139060000Y-95470000D01*
X139060000Y-95470000D02*
X138900000Y-95310000D01*
X138900000Y-95310000D02*
X138900000Y-95039240D01*
X138900000Y-94486790D02*
X139590000Y-93796790D01*
X139590000Y-93796790D02*
X139590000Y-93540000D01*
X138900000Y-95039240D02*
X138900000Y-94486790D01*
X149000000Y-94800000D02*
X149000000Y-92598600D01*
X151150000Y-92598600D02*
X151150000Y-93149780D01*
X151150000Y-93149780D02*
X151150000Y-94800000D01*
X153300000Y-94800000D02*
X153300000Y-92598600D01*
D33*
X142863256Y-97489895D02*
X143206155Y-97832794D01*
X142823361Y-97450000D02*
X142863256Y-97489895D01*
X140170000Y-97450000D02*
X142823361Y-97450000D01*
X139360000Y-96640000D02*
X140170000Y-97450000D01*
D32*
X146912082Y-116763103D02*
X146584684Y-116435705D01*
X147938962Y-114418962D02*
X147938962Y-116423103D01*
X147598962Y-116763103D02*
X146912082Y-116763103D01*
X147938962Y-116423103D02*
X147598962Y-116763103D01*
X147230000Y-113710000D02*
X147938962Y-114418962D01*
X148333271Y-108629789D02*
X148599982Y-108896500D01*
X147369789Y-108629789D02*
X148333271Y-108629789D01*
X147301250Y-108561250D02*
X147369789Y-108629789D01*
X145952899Y-116347101D02*
X145610000Y-116690000D01*
X145952899Y-114924962D02*
X145952899Y-116347101D01*
X145601250Y-114573313D02*
X145952899Y-114924962D01*
X145601250Y-112761250D02*
X145601250Y-114573313D01*
X149250000Y-124440000D02*
X149250000Y-124287600D01*
X145101250Y-112761250D02*
X145101250Y-115651250D01*
X145101250Y-115651250D02*
X145330000Y-115880000D01*
X144601250Y-116044167D02*
X144528589Y-116116828D01*
X144601250Y-112761250D02*
X144601250Y-116044167D01*
X146851102Y-118678046D02*
X146932851Y-118596297D01*
X139005179Y-116082070D02*
X141601155Y-118678046D01*
X141101250Y-112761250D02*
X141101250Y-113338650D01*
X139005179Y-115434721D02*
X139005179Y-116082070D01*
X141101250Y-113338650D02*
X139005179Y-115434721D01*
X141601155Y-118678046D02*
X146851102Y-118678046D01*
X154710000Y-108105067D02*
X154710000Y-110470106D01*
X150235706Y-114944400D02*
X150235706Y-115551213D01*
X150235706Y-115551213D02*
X150235706Y-116036146D01*
X157000000Y-106300000D02*
X156515067Y-106300000D01*
X154710000Y-110470106D02*
X150235706Y-114944400D01*
X156515067Y-106300000D02*
X154710000Y-108105067D01*
X157000000Y-106392400D02*
X157000000Y-106300000D01*
X157607600Y-107000000D02*
X157000000Y-106392400D01*
X158110000Y-107000000D02*
X157607600Y-107000000D01*
X141601250Y-113338650D02*
X139309990Y-115629910D01*
X146741954Y-117982536D02*
X147314951Y-117982536D01*
X141601250Y-112761250D02*
X141601250Y-113338650D01*
X139309990Y-115629910D02*
X139309990Y-115945814D01*
X139309990Y-115945814D02*
X141739951Y-118375775D01*
X141739951Y-118375775D02*
X146348715Y-118375775D01*
X146348715Y-118375775D02*
X146741954Y-117982536D01*
X147314951Y-117982536D02*
X147406063Y-118073648D01*
X147406063Y-118073648D02*
X147748962Y-118416547D01*
X151347101Y-114282899D02*
X151347101Y-115823492D01*
X151347101Y-115823492D02*
X151989723Y-116466114D01*
X155510000Y-109160000D02*
X155510000Y-110120000D01*
X151989723Y-116466114D02*
X152332622Y-116809013D01*
X155510000Y-110120000D02*
X151347101Y-114282899D01*
X155612149Y-106122754D02*
X156330000Y-105404903D01*
X156330000Y-105404903D02*
X156330000Y-105150000D01*
X132652899Y-99063472D02*
X132310000Y-99406371D01*
X132652899Y-96957101D02*
X132652899Y-99063472D01*
X132310000Y-99406371D02*
X132310000Y-99825067D01*
X132310000Y-99825067D02*
X132310000Y-100310000D01*
X133310000Y-96300000D02*
X132652899Y-96957101D01*
X144736897Y-93208962D02*
X143100000Y-91572065D01*
X146790000Y-91702065D02*
X145283103Y-93208962D01*
X146790000Y-91040000D02*
X146790000Y-91702065D01*
X143100000Y-91572065D02*
X143100000Y-91441690D01*
X145283103Y-93208962D02*
X144736897Y-93208962D01*
X143100000Y-91441690D02*
X143100000Y-90889240D01*
X138680000Y-94070000D02*
X137708499Y-95041501D01*
X137160000Y-96300000D02*
X133310000Y-96300000D01*
X139350000Y-92550000D02*
X138820000Y-92550000D01*
X141456790Y-91980000D02*
X139920000Y-91980000D01*
X137708499Y-95751501D02*
X137160000Y-96300000D01*
X142547550Y-90889240D02*
X141456790Y-91980000D01*
X139920000Y-91980000D02*
X139350000Y-92550000D01*
X138820000Y-92550000D02*
X138680000Y-92690000D01*
X143100000Y-90889240D02*
X142547550Y-90889240D01*
X137708499Y-95041501D02*
X137708499Y-95751501D01*
X138680000Y-92690000D02*
X138680000Y-94070000D01*
X154650631Y-92232653D02*
X154650631Y-91747720D01*
X154574919Y-92308365D02*
X154650631Y-92232653D01*
X154574919Y-97454919D02*
X154574919Y-92308365D01*
X154980000Y-97860000D02*
X154574919Y-97454919D01*
X161656814Y-110292899D02*
X163311148Y-110292899D01*
X161190316Y-110176401D02*
X161540316Y-110176401D01*
X161540316Y-110176401D02*
X161656814Y-110292899D01*
X163371148Y-110232899D02*
X163714047Y-109890000D01*
X163311148Y-110292899D02*
X163371148Y-110232899D01*
X152210000Y-95870000D02*
X153880000Y-95870000D01*
X164121501Y-99871501D02*
X164840000Y-100590000D01*
X153880000Y-95870000D02*
X154200000Y-96190000D01*
X162774178Y-98960000D02*
X163148499Y-99334321D01*
X154200000Y-96190000D02*
X154200000Y-97990000D01*
X154200000Y-97990000D02*
X155170000Y-98960000D01*
X155170000Y-98960000D02*
X162774178Y-98960000D01*
X163148499Y-99334321D02*
X163148499Y-99574321D01*
X163148499Y-99574321D02*
X163445679Y-99871501D01*
X164840000Y-100590000D02*
X164840000Y-103390000D01*
X163445679Y-99871501D02*
X164121501Y-99871501D01*
X164840000Y-103390000D02*
X164449030Y-103780970D01*
X163402899Y-105672899D02*
X163060000Y-105330000D01*
X163402899Y-109241279D02*
X163402899Y-105672899D01*
X162668499Y-109975679D02*
X163402899Y-109241279D01*
X161827666Y-109975679D02*
X162668499Y-109975679D01*
X161628388Y-109776401D02*
X161827666Y-109975679D01*
X161190316Y-109776401D02*
X161628388Y-109776401D01*
X134049468Y-100963489D02*
X134534401Y-100963489D01*
X132867112Y-99276734D02*
X132867112Y-99952971D01*
X133101039Y-100733102D02*
X133396898Y-101028961D01*
X132867112Y-99952971D02*
X133101039Y-100186898D01*
X133920000Y-98223846D02*
X132867112Y-99276734D01*
X133983996Y-101028961D02*
X134049468Y-100963489D01*
X133920000Y-97460000D02*
X133920000Y-98223846D01*
X133101039Y-100186898D02*
X133101039Y-100733102D01*
X133396898Y-101028961D02*
X133983996Y-101028961D01*
X138502450Y-97038220D02*
X139244441Y-97780211D01*
X142304387Y-97780211D02*
X142929795Y-98405619D01*
X147785067Y-95820000D02*
X148270000Y-95820000D01*
X144200000Y-95820000D02*
X147785067Y-95820000D01*
X142929795Y-98405619D02*
X143437988Y-98405619D01*
X139244441Y-97780211D02*
X142304387Y-97780211D01*
X143437988Y-98405619D02*
X143940000Y-97903607D01*
X137950000Y-97038220D02*
X138502450Y-97038220D01*
X143940000Y-96080000D02*
X144200000Y-95820000D01*
X143940000Y-97903607D02*
X143940000Y-96080000D01*
X136744639Y-104369379D02*
X136401740Y-104026480D01*
X136744639Y-104392216D02*
X136744639Y-104369379D01*
X138401250Y-105061250D02*
X137413673Y-105061250D01*
X137413673Y-105061250D02*
X136744639Y-104392216D01*
X137950000Y-96290000D02*
X138240000Y-96000000D01*
X137950000Y-97038220D02*
X137950000Y-96290000D01*
X137950000Y-97038220D02*
X134341780Y-97038220D01*
X134341780Y-97038220D02*
X133920000Y-97460000D01*
D33*
X140800000Y-94870000D02*
X140800000Y-94216800D01*
X140800000Y-94216800D02*
X142128580Y-92888220D01*
X142128580Y-92888220D02*
X142150000Y-92888220D01*
X143020000Y-96590000D02*
X142870000Y-96590000D01*
X142870000Y-96590000D02*
X141150000Y-94870000D01*
X141150000Y-94870000D02*
X140800000Y-94870000D01*
D32*
X142877600Y-96590000D02*
X143020000Y-96590000D01*
X147499194Y-101541598D02*
X149134745Y-101541598D01*
X145290655Y-101300745D02*
X147258341Y-101300745D01*
X147258341Y-101300745D02*
X147499194Y-101541598D01*
X142902150Y-101897940D02*
X143654534Y-101145556D01*
X142902150Y-103192304D02*
X142902150Y-101897940D01*
X145135466Y-101145556D02*
X145290655Y-101300745D01*
X143101250Y-103391404D02*
X142902150Y-103192304D01*
X149000000Y-97150000D02*
X149000000Y-97000000D01*
X143654534Y-101145556D02*
X145135466Y-101145556D01*
X150359789Y-98509789D02*
X149000000Y-97150000D01*
X143101250Y-103861250D02*
X143101250Y-103391404D01*
X149134745Y-101541598D02*
X150359789Y-100316554D01*
X150359789Y-100316554D02*
X150359789Y-98509789D01*
X148161666Y-108020168D02*
X148728024Y-108020168D01*
X151150000Y-97752400D02*
X151150000Y-97000000D01*
X150253687Y-103333301D02*
X151518913Y-102068075D01*
X149516563Y-106948405D02*
X150594682Y-105870286D01*
X151518913Y-100485424D02*
X151150000Y-100116511D01*
X147301250Y-107561250D02*
X147702748Y-107561250D01*
X147702748Y-107561250D02*
X148161666Y-108020168D01*
X150594682Y-103931573D02*
X150253687Y-103590578D01*
X149516563Y-107231629D02*
X149516563Y-106948405D01*
X150253687Y-103590578D02*
X150253687Y-103333301D01*
X148728024Y-108020168D02*
X149516563Y-107231629D01*
X151518913Y-102068075D02*
X151518913Y-100485424D01*
X150594682Y-105870286D02*
X150594682Y-103931573D01*
X151150000Y-100116511D02*
X151150000Y-97752400D01*
X150899493Y-106071234D02*
X150899493Y-103805317D01*
X152697600Y-97000000D02*
X153300000Y-97000000D01*
X151821184Y-100273129D02*
X151566698Y-100018643D01*
X152545815Y-97000000D02*
X152697600Y-97000000D01*
X150558498Y-103459556D02*
X151821184Y-102196870D01*
X149821374Y-107357885D02*
X149821374Y-107149353D01*
X149821374Y-107149353D02*
X150899493Y-106071234D01*
X148854280Y-108324979D02*
X149821374Y-107357885D01*
X151566698Y-97979117D02*
X152545815Y-97000000D01*
X150899493Y-103805317D02*
X150558498Y-103464322D01*
X147301250Y-108061250D02*
X147771682Y-108061250D01*
X150558498Y-103464322D02*
X150558498Y-103459556D01*
X151566698Y-100018643D02*
X151566698Y-97979117D01*
X147771682Y-108061250D02*
X148035410Y-108324979D01*
X151821184Y-102196870D02*
X151821184Y-100273129D01*
X148035410Y-108324979D02*
X148854280Y-108324979D01*
X140503650Y-101741876D02*
X140503650Y-103126150D01*
X140862400Y-101383126D02*
X140503650Y-101741876D01*
X140503650Y-103126150D02*
X140601250Y-103223750D01*
X140601250Y-103223750D02*
X140601250Y-103861250D01*
X139910000Y-99880900D02*
X140862400Y-100833300D01*
X140862400Y-100833300D02*
X140862400Y-101383126D01*
X140557600Y-101256874D02*
X140198850Y-101615624D01*
X140198850Y-101615624D02*
X140198850Y-103126150D01*
X140198850Y-103126150D02*
X140101250Y-103223750D01*
X140101250Y-103223750D02*
X140101250Y-103861250D01*
X140557600Y-100959552D02*
X140557600Y-101256874D01*
X139910000Y-100719100D02*
X140317148Y-100719100D01*
X140317148Y-100719100D02*
X140557600Y-100959552D01*
M02*
