M48
INCH,TZ
T1C0.013
T2C0.013
T3C0.040
T4C0.118
%
G90
G05
T1
X51492Y-42433
X51693Y-46984
X52091Y-39492
X52213Y-45484
X52299Y-46984
X52484Y-37913
X52534Y-39193
X52543Y-43071
X52569Y-40986
X52626Y-39551
X52886Y-43091
X52897Y-41009
X52966Y-39749
X53091Y-38821
X53144Y-39147
X53295Y-41201
X53309Y-40753
X53393Y-44785
X53425Y-40445
X53430Y-38924
X53701Y-40955
X53788Y-46893
X53854Y-44756
X53996Y-42150
X54000Y-36146
X54036Y-40641
X54079Y-41025
X54135Y-39744
X54324Y-44405
X54382Y-46157
X54410Y-39301
X54425Y-37795
X54484Y-40622
X54692Y-44774
X54705Y-39657
X54753Y-39322
X54866Y-38047
X55083Y-39323
X55083Y-39653
X55184Y-45547
X55750Y-39515
X55967Y-39265
X56219Y-45962
X56380Y-38517
X56606Y-40478
X56714Y-40166
X56838Y-38875
X56901Y-45715
X57056Y-40376
X57064Y-38636
X57091Y-36472
X57217Y-45622
X57327Y-45941
X57350Y-40227
X57442Y-39099
X57711Y-45841
X57791Y-35843
X57848Y-46691
X57965Y-44768
X58000Y-40705
X58020Y-45728
X58051Y-39448
X58169Y-46621
X58179Y-39752
X58330Y-40744
X58369Y-41983
X58374Y-37724
X58452Y-42303
X58473Y-46746
X58489Y-41533
X58504Y-42873
X58577Y-40963
X58604Y-39301
X58718Y-41917
X58728Y-43807
X58788Y-46875
X58813Y-43296
X58825Y-45622
X58935Y-39428
X58966Y-41439
X59064Y-41124
X59148Y-45684
X59198Y-39816
X59331Y-42341
X59374Y-46240
X59478Y-43583
X59485Y-43253
X59572Y-42115
X59607Y-40718
X59748Y-47997
X59754Y-41478
X59810Y-42532
X59817Y-45088
X59925Y-37744
X59939Y-41205
X59945Y-42837
X59973Y-45988
X59996Y-39718
X60017Y-38732
X60178Y-44799
X60260Y-39240
X60311Y-48102
X60324Y-39688
X60357Y-38885
X60379Y-44537
X60454Y-45435
X60528Y-46267
X60565Y-40261
X60677Y-48146
X60808Y-40483
X60886Y-36121
X60933Y-41733
X60988Y-41409
X61016Y-38528
X61171Y-48217
X61224Y-42976
X61246Y-40305
X61248Y-39976
X61265Y-41781
X61307Y-38142
X61429Y-45172
X61547Y-41398
X61563Y-40392
X61570Y-42297
X61575Y-42598
X61583Y-42917
X61587Y-47451
X61749Y-44995
X61811Y-41850
X61831Y-42437
X61831Y-42756
X61831Y-43075
X61880Y-47602
X61883Y-41423
X62232Y-47619
X62661Y-35787
X62667Y-47809
X62744Y-37807
X62866Y-40575
X63811Y-42756
X63819Y-42122
X63823Y-42437
X63823Y-43067
X64051Y-42602
X64051Y-42902
X64055Y-42287
X64071Y-41969
X64197Y-41469
X64387Y-44754
X64396Y-43634
X64457Y-39094
X64484Y-40594
X64744Y-40859
T2
X60829Y-44540
X60876Y-44867
X61070Y-44314
X61192Y-44764
X61338Y-43773
X61693Y-43694
X62305Y-39186
X62305Y-39186
X62874Y-46292
X63224Y-39186
X63374Y-46161
X63635Y-39186
X63980Y-39191
X64120Y-39490
X64154Y-44055
X64154Y-46138
X64449Y-44425
X64453Y-45077
X64454Y-43264
T3
X55760Y-48992
X56760Y-48992
X57760Y-48992
X58760Y-48992
X59760Y-48992
X60760Y-48992
T4
X52264Y-36516
X52264Y-48524
X64272Y-36516
X64272Y-48524
T0
M30
